<?xml version="1.0" encoding="UTF-8"?>
<svg id="Layer_2" data-name="Layer 2" xmlns="http://www.w3.org/2000/svg" viewBox="0 0 391.08 391.08">
  <defs>
    <style>
      .cls-1 {
        fill: #15538a;
      }

      .cls-2, .cls-3, .cls-4, .cls-5 {
        fill: none;
      }

      .cls-2, .cls-6, .cls-7 {
        fill-rule: evenodd;
      }

      .cls-3 {
        stroke-linejoin: bevel;
      }

      .cls-3, .cls-4 {
        stroke-linecap: round;
      }

      .cls-3, .cls-4, .cls-5 {
        stroke: #000;
      }

      .cls-3, .cls-5 {
        stroke-width: 6.36px;
      }

      .cls-4, .cls-5 {
        stroke-miterlimit: 33.89;
      }

      .cls-6 {
        fill: #fff;
      }
    </style>
  </defs>
  <g id="Layer_1-2" data-name="Layer 1">
    <circle class="cls-1" cx="195.54" cy="195.54" r="195.54"/>
    <g>
      <path class="cls-6" d="m195.65,338.89c99.54-41.82,109.22-127.08,109.22-140.02v-110.68H86.2v110.68c0,12.94,9.91,98.2,109.45,140.02h0Z"/>
      <path class="cls-5" d="m195.65,338.89c99.54-41.82,109.22-127.08,109.22-140.02v-110.68H86.2v110.68c0,12.94,9.91,98.2,109.45,140.02"/>
      <path class="cls-2" d="m304.64,154.27h-2.3c-6.22-.03-12.34,1.56-17.75,4.62-5.3,3.23-11.3,4.85-17.75,4.85s-12.67-1.62-17.74-4.62l-.23-.23c-5.07-3-11.3-4.85-17.75-4.85s-12.45,1.85-17.75,4.85c-5.3,3.23-11.29,4.85-17.74,4.85s-12.67-1.62-17.74-4.85h-.23c-5.38-3.16-11.5-4.84-17.74-4.85-6.45,0-12.44,1.85-17.74,4.85-5.3,3.01-11.29,4.85-17.74,4.85-6.24-.01-12.36-1.69-17.74-4.85h-.23c-5.37-3.19-11.5-4.87-17.74-4.85-.69,0-.92,0-1.84.23h-.69v44.6c0,12.94,9.91,98.2,109.45,140.02,99.54-41.82,109.22-127.08,109.22-140.02v-44.6h-.23s0,0,0,0Z"/>
      <path class="cls-5" d="m304.64,154.27h-2.3c-6.22-.03-12.34,1.56-17.75,4.62-5.3,3.23-11.3,4.85-17.75,4.85s-12.67-1.62-17.74-4.62l-.23-.23c-5.07-3-11.3-4.85-17.75-4.85s-12.45,1.85-17.75,4.85c-5.3,3.23-11.29,4.85-17.74,4.85s-12.67-1.62-17.74-4.85h-.23c-5.38-3.16-11.5-4.84-17.74-4.85-6.45,0-12.44,1.85-17.74,4.85-5.3,3.01-11.29,4.85-17.74,4.85-6.24-.02-12.36-1.69-17.74-4.85h-.23c-5.37-3.19-11.5-4.87-17.74-4.85-.69,0-.92,0-1.84.23h-.69v44.6c0,12.94,9.91,98.2,109.45,140.02,99.54-41.82,109.22-127.08,109.22-140.02v-44.6h-.23"/>
      <path class="cls-6" d="m195.65,211.81c10.83-7.62,21.89-9.01,32.49-4.62,8.53,3.7,14.52,4.16,22.58,2.31l11.3,5.55h2.54c.73-.91,1.84-1.42,3-1.39,2.07,0,3.91,1.62,3.91,3.7,0,1.85-1.85,3.47-3.91,3.47-1.16.03-2.27-.48-3-1.39h-2.54v3h2.54c.69-.69,1.85-1.38,3-1.38,2.07,0,3.91,1.62,3.91,3.7s-1.85,3.7-3.91,3.7c-1.16.03-2.27-.48-3-1.39h-2.54v3.01h2.54c.73-.9,1.84-1.41,3-1.38,2.07,0,3.91,1.62,3.91,3.7s-1.85,3.7-3.91,3.7c-1.15,0-2.3-.69-3-1.39h-2.54v3.01h2.54c.73-.91,1.84-1.42,3-1.39,2.07,0,3.91,1.62,3.91,3.47,0,2.08-1.85,3.7-3.91,3.7-1.16.03-2.27-.48-3-1.38h-2.54v3.01h2.54c.69-.69,1.85-1.38,3-1.38,2.07,0,3.91,1.62,3.91,3.7s-1.85,3.7-3.91,3.7c-1.16.03-2.27-.48-3-1.39h-2.54v3.01h2.54c.73-.9,1.84-1.41,3-1.38,2.3,0,3.91,1.62,3.91,3.7,0,1.85-1.62,3.46-3.91,3.46-1.11,0-2.18-.4-3-1.16h-2.54v3.01h2.54c.73-.9,1.84-1.42,3-1.39,2.3,0,3.91,1.62,3.91,3.47,0,2.08-1.62,3.7-3.91,3.7-1.16.03-2.27-.48-3-1.39h-2.54c-6.45,5.55-13.13,7.62-20.74,7.62-6.45,0-10.37-.93-14.52-3.7-6.68-4.62-14.97-4.62-21.66,0,1.38.69,2.31,2.31,2.31,3.93,0,2.54-2.08,4.62-4.61,4.62h-14.52c-2.55-.01-4.61-2.08-4.61-4.62,0-1.62,1.15-3.23,2.54-3.93-6.68-4.62-14.98-4.62-21.89,0-4.15,2.77-7.83,3.7-14.28,3.7-7.83,0-14.52-2.08-20.74-7.62h-2.76c-.73.91-1.84,1.42-3,1.39-2.07,0-3.92-1.62-3.92-3.7,0-1.85,1.85-3.47,3.92-3.47,1.15,0,2.3.47,3,1.39h2.76v-3.01h-2.76c-.82.75-1.89,1.17-3,1.16-2.07,0-3.92-1.62-3.92-3.46,0-2.08,1.85-3.7,3.92-3.7,1.15,0,2.3.46,3,1.38h2.76v-3.01h-2.76c-.69.93-1.84,1.39-3,1.39-2.07,0-3.92-1.62-3.92-3.7s1.85-3.7,3.92-3.7c1.15,0,2.3.69,3,1.38h2.76v-3h-2.76c-.69.92-1.61,1.38-3,1.38-2.01.02-3.66-1.59-3.69-3.6,0-.03,0-.06,0-.09,0-1.85,1.61-3.47,3.69-3.47,1.38,0,2.3.46,3,1.39h2.76v-3.01h-2.76c-.69.69-1.61,1.39-3,1.39-2.01.02-3.66-1.59-3.69-3.6,0-.03,0-.06,0-.09,0-2.08,1.61-3.7,3.69-3.7,1.38,0,2.3.46,3,1.38h2.76v-3.01h-2.76c-.69.93-1.61,1.39-3,1.39-2.07,0-3.69-1.62-3.69-3.7s1.61-3.7,3.69-3.7c1.38,0,2.3.69,3,1.38h2.76v-3h-2.76c-.69.92-1.61,1.39-3,1.39-2.07,0-3.69-1.62-3.69-3.47,0-2.08,1.61-3.7,3.69-3.7,1.38,0,2.3.46,3,1.39h2.76l11.06-5.55c8.07,1.85,14.06,1.39,22.81-2.31,10.37-4.39,21.43-3.01,32.49,4.62h0Z"/>
      <path class="cls-4" d="m195.65,211.81c10.83-7.62,21.89-9.01,32.49-4.62,8.53,3.7,14.52,4.16,22.58,2.31l11.3,5.55h2.54c.73-.91,1.84-1.42,3-1.39,2.07,0,3.91,1.62,3.91,3.7,0,1.85-1.85,3.47-3.91,3.47-1.16.03-2.27-.48-3-1.39h-2.54v3h2.54c.69-.69,1.85-1.38,3-1.38,2.07,0,3.91,1.62,3.91,3.7s-1.85,3.7-3.91,3.7c-1.16.03-2.27-.48-3-1.39h-2.54v3.01h2.54c.73-.91,1.84-1.42,3-1.39,2.07,0,3.91,1.62,3.91,3.7s-1.85,3.7-3.91,3.7c-1.15,0-2.3-.69-3-1.39h-2.54v3.01h2.54c.73-.91,1.84-1.42,3-1.39,2.07,0,3.91,1.62,3.91,3.47,0,2.08-1.85,3.7-3.91,3.7-1.16.03-2.27-.48-3-1.38h-2.54v3.01h2.54c.69-.69,1.85-1.38,3-1.38,2.07,0,3.91,1.62,3.91,3.7s-1.85,3.7-3.91,3.7c-1.16.03-2.27-.48-3-1.39h-2.54v3.01h2.54c.73-.9,1.84-1.41,3-1.38,2.3,0,3.91,1.62,3.91,3.7,0,1.85-1.62,3.46-3.91,3.46-1.11,0-2.18-.4-3-1.16h-2.54v3.01h2.54c.73-.9,1.84-1.42,3-1.39,2.3,0,3.91,1.62,3.91,3.47,0,2.08-1.62,3.7-3.91,3.7-1.16.03-2.27-.48-3-1.39h-2.54c-6.45,5.55-13.13,7.62-20.74,7.62-6.45,0-10.37-.93-14.52-3.7-6.68-4.62-14.97-4.62-21.66,0,1.38.69,2.31,2.31,2.31,3.93,0,2.54-2.08,4.62-4.61,4.62h-14.52c-2.55-.01-4.61-2.08-4.61-4.62,0-1.62,1.15-3.23,2.54-3.93-6.68-4.62-14.98-4.62-21.89,0-4.15,2.77-7.83,3.7-14.28,3.7-7.83,0-14.52-2.08-20.74-7.62h-2.76c-.73.91-1.84,1.42-3,1.39-2.07,0-3.92-1.62-3.92-3.7,0-1.85,1.85-3.47,3.92-3.47,1.15,0,2.3.47,3,1.39h2.76v-3.01h-2.76c-.82.75-1.89,1.17-3,1.16-2.07,0-3.92-1.62-3.92-3.46,0-2.08,1.85-3.7,3.92-3.7,1.15,0,2.3.46,3,1.38h2.76v-3.01h-2.76c-.69.93-1.84,1.39-3,1.39-2.07,0-3.92-1.62-3.92-3.7s1.85-3.7,3.92-3.7c1.15,0,2.3.69,3,1.38h2.76v-3h-2.76c-.69.92-1.61,1.38-3,1.38-2.01.02-3.66-1.59-3.69-3.6,0-.03,0-.06,0-.09,0-1.85,1.61-3.47,3.69-3.47,1.38,0,2.3.46,3,1.39h2.76v-3.01h-2.76c-.69.69-1.61,1.39-3,1.39-2.01.02-3.66-1.59-3.69-3.6,0-.03,0-.06,0-.09,0-2.08,1.61-3.7,3.69-3.7,1.38,0,2.3.46,3,1.39h2.76v-3.01h-2.76c-.69.93-1.61,1.39-3,1.39-2.07,0-3.69-1.62-3.69-3.7s1.61-3.7,3.69-3.7c1.38,0,2.3.69,3,1.38h2.76v-3h-2.76c-.69.92-1.61,1.39-3,1.39-2.07,0-3.69-1.62-3.69-3.47,0-2.08,1.61-3.7,3.69-3.7,1.38,0,2.3.46,3,1.39h2.76l11.06-5.55c8.07,1.85,14.06,1.39,22.81-2.31,10.37-4.4,21.43-3.01,32.49,4.61m-5.99,60.76h11.75m-5.76-60.76v60.77m56.45-61.69v49.21c-6.91,3.47-12.67,4.85-23.27-.69-12.68-6.7-25.58-2.54-33.19,5.31-7.61-7.86-20.74-12.01-33.18-5.31-10.83,5.55-16.59,4.16-23.5.69v-49.21"/>
      <path class="cls-3" d="m256.95,212.73v49.91c-9.91,6.24-19.59,6.47-27.88,1.85-10.83-6.01-25.58-5.55-33.41,8.09-7.83-13.63-22.81-14.09-33.41-8.09-8.3,4.62-17.97,4.39-27.88-1.85v-49.91"/>
      <path class="cls-6" d="m152.8,163.98l4.14,13.4h14.29l-11.75,8.31,4.15,13.4-10.83-8.32-11.06,8.32,4.15-13.4-11.52-8.31h14.06l4.38-13.4h0Z"/>
      <path class="cls-5" d="m152.8,163.98l4.14,13.4h14.29l-11.75,8.31,4.15,13.4-10.83-8.32-11.06,8.32,4.15-13.4-11.52-8.31h14.06l4.38-13.4"/>
      <path class="cls-6" d="m238.52,163.74l4.14,13.4h14.29l-11.75,8.55,4.14,13.17-10.82-8.32-11.06,8.32,4.15-13.17-11.52-8.55h14.06l4.38-13.4h0Z"/>
      <path class="cls-5" d="m238.52,163.74l4.14,13.4h14.29l-11.75,8.55,4.14,13.17-10.82-8.32-11.06,8.32,4.15-13.17-11.52-8.55h14.06l4.38-13.4"/>
      <path class="cls-6" d="m195.65,288.05l4.14,13.4h14.29l-11.75,8.31,4.14,13.4-10.83-8.31-11.06,8.31,4.15-13.4-11.52-8.31h14.06l4.38-13.4h0Z"/>
      <path class="cls-5" d="m195.65,288.05l4.14,13.4h14.29l-11.75,8.31,4.14,13.4-10.83-8.31-11.06,8.31,4.15-13.4-11.52-8.31h14.06l4.38-13.4"/>
      <path class="cls-7" d="m118.92,104.83c3.92-4.85,9.22-5.32,11.52-5.32,16.82-.46,25.35,12.01,24.89,22.18-.46,11.55-8.99,14.09-10.14,14.56,0,0-.23,2.31,1.61,5.78.23.23.69.46.23,1.16,0,.23-.46.69-.46.92,0,0-.23.47-.23.93.23.69,0,1.62-.46,2.54-.46.93,0,3.23.23,4.85,0,.46-.23.46-.46.23-.92-.69-1.85-3.01-2.07-4.16-2.07.69-4.38,3.7-5.3,5.32,0,.23-.46.46-.46,0,0-.23-.46-3.47,2.76-6.01-1.61-.46-3.22.23-4.38.92-.23,0-.69.23-.23-.23,0,0,.92-2.31,5.3-2.77,0-.23.92-1.62,1.38-2.77-.32-1.97-1.02-3.85-2.07-5.55-.23,0-3.22.23-5.53,1.85,0,.23-.23.46-.23.93v.92s-.23.92-1.38,1.38c0,0-3.69,1.16-5.53,2.08,0,0-1.61.69-2.76,2.31-.23.23-1.15,1.85-2.54,2.08-.46.23-1.15.47-1.62.92-.46.69-.92,1.16-1.38,1.39-.46.23-1.38,1.39-2.07,2.77-.23.23-.46.69-.46,0v-1.38c.46-1.85,1.38-2.77,2.07-3.47-.23-.23-.23,0-.69-.23-1.15.23-5.53-.23-8.07.92,0,.23-.23.23,0-.23.46-.46,1.38-3,6.92-3,.23-.69-2.54-1.85-3.69-1.85-.46,0-.23-.23,0-.47.23,0,2.76-1.16,5.76.69,0,0,2.07-.69,3.23-.69,1.38-1.16,4.38-4.16,5.53-4.62v-1.62c-1.62-2.31-1.85-5.55-1.85-7.4-3.22-.23-6.68-3.23-8.53-5.55-2.54-.23-7.14-2.31-9.67-7.4-8.53,6.24-14.06,17.33-14.52,17.79q-.23.23-.46,0c-.92-1.62-1.15-4.39-.69-5.08,1.61-4.62,5.53-10.86,9.91-16.4-1.61-9.24,6.91-12.47,10.37-12.25,3.47,0,5.77,2.31,6.23,3h0Z"/>
      <path class="cls-6" d="m118.23,108.98s4.15-6.7,9.45-6.93c-1.61,1.38-1.85,2.31-1.85,2.31v.47s2.31-2.54,6.92-2.54c-1.62,1.16-2.31,2.31-2.31,2.31v.23c0,.23,3.23-2.31,8.3-.23-1.15.23-2.76.92-3,1.39-.23.23,0,.23,0,.23,5.99-.93,11.52,5.77,11.29,11.78,0,4.39-3,8.78-8.76,10.17-.69.92-2.07,4.62-2.07,4.62-2.54.92-5.99,3.23-6.45,3.7v.23l-.23-.47c-.92-1.62-.92-6.93-1.15-7.62-5.76.46-8.99-5.08-9.91-5.55-6.45-.47-9.45-7.86-9.91-8.32-4.84,3.01-9.91,9.24-13.13,14.09,0-.23-.23,0,0-.23,3.69-7.86,8.06-11.79,9.45-14.09-3-6.24,4.61-10.86,7.83-10.4,4.61,0,5.53,4.85,5.53,4.85h0Z"/>
      <path class="cls-7" d="m106.25,111.99c0-.92.46-1.38,1.38-1.38.69,0,1.38.46,1.38,1.38,0,.69-.69,1.38-1.38,1.38-.92,0-1.38-.69-1.38-1.38Zm83.64-7.16c3.91-4.85,8.99-5.32,11.52-5.32,16.83-.46,25.35,12.01,24.89,22.18-.47,11.55-9.22,14.09-10.37,14.56,0,0,0,2.31,1.85,5.78.23.23.47.46.23,1.16-.24.25-.41.58-.47.92-.23,0-.23.47-.23.93.23.69,0,1.62-.69,2.54-.23.93.23,3.23.47,4.85,0,.46-.23.46-.47.23-1.15-.69-1.85-3.01-2.08-4.16-2.07.69-4.37,3.7-5.3,5.32,0,.23-.46.46-.46,0-.23-.23-.47-3.47,2.76-6.01-1.62-.46-3.46.23-4.61.92,0,0-.47.23-.23-.23.23,0,1.15-2.31,5.53-2.77,0-.23.93-1.62,1.15-2.77,0-1.62-.92-3.7-1.84-5.55-.23,0-3.23.23-5.53,1.85,0,.23-.47.46-.47.93v.92s0,.92-1.15,1.38c-.23,0-3.91,1.16-5.53,2.08-.23,0-1.61.69-3,2.31-.23.23-1.15,1.85-2.3,2.08-.46.23-1.15.47-1.61.92-.46.69-1.15,1.16-1.38,1.39-.46.23-1.61,1.39-2.3,2.77,0,.23-.23.69-.23,0v-1.38c.46-1.85,1.15-2.77,2.07-3.47-.46-.23-.46,0-.69-.23-1.38.23-5.53-.23-8.07.92-.23.23-.46.23-.23-.23.46-.46,1.38-3,7.14-3,0-.69-2.54-1.85-3.91-1.85-.23,0,0-.23,0-.47.46,0,2.76-1.16,5.76.69.23,0,2.3-.69,3.22-.69,1.38-1.16,4.61-4.16,5.76-4.62,0-.23-.23-.92,0-1.62h-.23c-1.38-2.31-1.84-5.55-1.61-7.4-3.22-.23-6.91-3.23-8.76-5.55-2.3-.23-6.91-2.31-9.45-7.4-8.53,6.24-14.28,17.33-14.52,17.79q-.23.23-.46,0c-.92-1.62-1.15-4.39-.92-5.08,1.85-4.62,5.76-10.86,10.14-16.4-1.84-9.24,6.92-12.47,10.14-12.25,3.46,0,5.99,2.31,6.45,3h0Z"/>
      <path class="cls-6" d="m189.2,108.98s4.15-6.7,9.22-6.93c-1.38,1.38-1.61,2.31-1.61,2.31v.47s2.3-2.54,6.91-2.54c-.9.62-1.68,1.4-2.3,2.31v.23c0,.23,3.23-2.31,8.3-.23-1.15.23-3,.92-3.23,1.39,0,.23.23.23.23.23,5.99-.93,11.3,5.77,11.3,11.78-.23,4.39-3.23,8.78-8.76,10.17-.92.92-2.07,4.62-2.07,4.62-2.76.92-5.99,3.23-6.45,3.7v.23l-.23-.47c-1.15-1.62-1.15-6.93-1.15-7.62-5.76.46-9.22-5.08-9.91-5.55-6.68-.47-9.45-7.86-9.91-8.32-5.07,3.01-9.91,9.24-13.37,14.09.23-.23,0,0,0-.23,3.91-7.86,8.3-11.79,9.45-14.09-2.77-6.24,4.84-10.86,8.06-10.4,4.61,0,5.53,4.85,5.53,4.85h0Z"/>
      <path class="cls-7" d="m176.99,111.99c0-.92.69-1.38,1.38-1.38.92,0,1.38.46,1.38,1.38,0,.69-.46,1.38-1.38,1.38-.69,0-1.38-.69-1.38-1.38Zm83.41-7.16c3.91-4.85,8.99-5.32,11.52-5.32,16.59-.46,25.11,12.01,24.88,22.18-.47,11.55-9.22,14.09-10.37,14.56,0,0-.23,2.31,1.84,5.78,0,.23.47.46.23,1.16-.23.23-.47.69-.69.92,0,0-.23.47,0,.93.22.69,0,1.62-.69,2.54-.47.93.23,3.23.47,4.85,0,.46-.23.46-.47.23-1.15-.69-1.85-3.01-2.3-4.16-1.85.69-4.38,3.7-5.07,5.32,0,.23-.47.46-.69,0,0-.23-.23-3.47,3-6.01-1.62-.46-3.46.23-4.61.92,0,0-.46.23-.22-.23,0,0,1.15-2.31,5.3-2.77.22-.23,1.15-1.62,1.37-2.77,0-1.62-.92-3.7-1.84-5.55-.23,0-3.46.23-5.53,1.85-.23.23-.47.46-.47.93v.92s-.22.92-1.15,1.38c-.23,0-3.91,1.16-5.53,2.08-.22,0-1.84.69-2.99,2.31-.23.23-1.15,1.85-2.54,2.08-.23.23-.93.47-1.38.92-.69.69-1.16,1.16-1.62,1.39-.47.23-1.38,1.39-2.08,2.77,0,.23-.23.69-.23,0-.22-.46,0-1.38,0-1.38.23-1.85,1.16-2.77,1.85-3.47-.23-.23-.23,0-.47-.23-1.38.23-5.52-.23-8.07.92-.22.23-.46.23-.22-.23.46-.46,1.38-3,7.14-3,0-.69-2.54-1.85-3.91-1.85-.46,0-.23-.23,0-.47.23,0,2.76-1.16,5.76.69.23,0,2.07-.69,3.23-.69,1.38-1.16,4.37-4.16,5.76-4.62,0-.23-.23-.92,0-1.62h-.23c-1.61-2.31-1.84-5.55-1.61-7.4-3.46-.23-6.92-3.23-8.76-5.55-2.3-.23-6.92-2.31-9.45-7.4-8.75,6.24-14.28,17.33-14.52,17.79-.23.23-.47.23-.47,0-.92-1.62-1.15-4.39-.92-5.08,1.62-4.62,5.76-10.86,9.91-16.4-1.62-9.24,7.14-12.47,10.37-12.25,3.46,0,6,2.31,6.46,3h0Z"/>
      <path class="cls-6" d="m259.71,108.98s3.91-6.7,9.22-6.93c-1.38,1.38-1.85,2.31-1.85,2.31v.47s2.54-2.54,7.14-2.54c-.91.62-1.69,1.4-2.3,2.31v.23c0,.23,3.22-2.31,8.29-.23-1.15.23-2.99.92-3.22,1.39v.23c6.22-.93,11.52,5.77,11.52,11.78-.23,4.39-3.23,8.78-8.75,10.17-.93.92-2.08,4.62-2.08,4.62-2.76.92-5.99,3.23-6.45,3.7,0,0-.23,0,0,.23l-.47-.47c-.92-1.62-.92-6.93-.92-7.62-5.99.46-9.22-5.08-9.91-5.55-6.68-.47-9.44-7.86-9.9-8.32-5.07,3.01-9.91,9.24-13.37,14.09.23-.23,0,0,0-.23,3.69-7.86,8.3-11.79,9.45-14.09-2.76-6.24,4.6-10.86,8.07-10.4,4.61,0,5.54,4.85,5.54,4.85h0Z"/>
      <path class="cls-7" d="m247.5,111.99c0-.92.69-1.38,1.38-1.38s1.38.46,1.38,1.38c-.05.74-.64,1.33-1.38,1.38-.74-.05-1.34-.64-1.38-1.38Z"/>
    </g>
  </g>
</svg>