<?xml version="1.0" encoding="UTF-8"?>
<svg id="Layer_2" data-name="Layer 2" xmlns="http://www.w3.org/2000/svg" viewBox="0 0 391.08 391.08">
  <defs>
    <style>
      .cls-1 {
        fill: none;
        stroke: #7d8b91;
        stroke-miterlimit: 10;
        stroke-width: 1.66px;
      }

      .cls-2 {
        fill: #fff;
      }

      .cls-3 {
        fill: #fff6d7;
      }

      .cls-4 {
        fill: #efd8b1;
      }

      .cls-5 {
        fill: #a57b5e;
      }

      .cls-6 {
        fill: #bf9173;
      }

      .cls-7 {
        fill: #dfcea3;
      }

      .cls-8 {
        fill: #89664c;
      }
    </style>
  </defs>
  <g id="Layer_2-2" data-name="Layer 2">
    <g id="Layer_1-2" data-name="Layer 1-2">
      <circle class="cls-2" cx="195.54" cy="195.54" r="195.54"/>
    </g>
    <g>
      <path d="m62.12,160.77c-7.75,10.4-13.37,24.2-13.37,43.41s5.84,32.48,13.37,43.09h-7.32c-6.69-8.81-13.9-22.4-13.9-43.09.11-20.91,7.22-34.5,13.9-43.41h7.32Z"/>
      <g>
        <path class="cls-8" d="m78.89,149.41c0,1.13-.91,2.05-2.04,2.05s-2.04-.92-2.04-2.05v-3.14c0-1.13.91-2.05,2.04-2.05s2.04.92,2.04,2.05v3.14Z"/>
        <path class="cls-8" d="m74.81,245.14c0-1.14.91-2.05,2.04-2.05s2.04.92,2.04,2.05v3.14c0,1.13-.91,2.05-2.04,2.05s-2.04-.92-2.04-2.05v-3.14Z"/>
        <path class="cls-5" d="m85.97,153.76c0,2.87-2.31,5.2-5.16,5.2h-7.92c-2.85,0-5.16-2.33-5.16-5.2s2.31-5.2,5.16-5.2h7.92c2.85,0,5.16,2.33,5.16,5.2Z"/>
        <path class="cls-5" d="m67.72,240.79c0-2.87,2.31-5.2,5.16-5.2h7.92c2.85,0,5.16,2.33,5.16,5.2s-2.31,5.2-5.16,5.2h-7.92c-2.85,0-5.16-2.33-5.16-5.2Z"/>
        <rect class="cls-7" x="68.2" y="160.65" width="17.28" height="73.25"/>
        <path class="cls-8" d="m89.45,158.35c0,1.27-1.02,2.3-2.28,2.3h-20.64c-1.26,0-2.28-1.03-2.28-2.3s1.02-2.3,2.28-2.3h20.65c1.26,0,2.28,1.03,2.28,2.3Z"/>
        <path class="cls-8" d="m64.24,236.19c0-1.27,1.02-2.3,2.28-2.3h20.65c1.26,0,2.28,1.03,2.28,2.3s-1.02,2.3-2.28,2.3h-20.65c-1.26,0-2.28-1.03-2.28-2.3Z"/>
        <path class="cls-5" d="m78.43,149.41c0,1.13-.71,2.05-1.58,2.05s-1.58-.92-1.58-2.05v-3.14c0-1.13.71-2.05,1.58-2.05s1.58.92,1.58,2.05v3.14Z"/>
        <path class="cls-5" d="m75.27,245.14c0-1.14.71-2.05,1.58-2.05s1.58.92,1.58,2.05v3.14c0,1.13-.71,2.05-1.58,2.05s-1.58-.92-1.58-2.05v-3.14h0Z"/>
        <path class="cls-6" d="m83.9,153.76c0,2.87-1.79,5.2-3.99,5.2h-6.13c-2.21,0-3.99-2.33-3.99-5.2s1.79-5.2,3.99-5.2h6.13c2.21,0,3.99,2.33,3.99,5.2Z"/>
        <path class="cls-6" d="m69.79,240.79c0-2.87,1.79-5.2,3.99-5.2h6.13c2.21,0,3.99,2.33,3.99,5.2s-1.79,5.2-3.99,5.2h-6.13c-2.21,0-3.99-2.33-3.99-5.2Z"/>
        <rect class="cls-4" x="70.16" y="160.65" width="13.37" height="73.25"/>
        <path class="cls-5" d="m86.6,158.35c0,1.27-.79,2.3-1.76,2.3h-15.97c-.97,0-1.76-1.03-1.76-2.3s.79-2.3,1.76-2.3h15.97c.97,0,1.76,1.03,1.76,2.3Z"/>
        <path class="cls-5" d="m67.1,236.19c0-1.27.79-2.3,1.76-2.3h15.97c.97,0,1.76,1.03,1.76,2.3s-.79,2.3-1.76,2.3h-15.97c-.98,0-1.76-1.03-1.76-2.3Z"/>
        <path class="cls-8" d="m159.82,149.42c0,1.14-.91,2.05-2.04,2.05s-2.04-.92-2.04-2.05v-3.14c0-1.13.91-2.05,2.04-2.05s2.04.92,2.04,2.05v3.14h0Z"/>
        <path class="cls-8" d="m155.74,245.15c0-1.13.91-2.05,2.04-2.05s2.04.92,2.04,2.05v3.14c0,1.13-.91,2.05-2.04,2.05s-2.04-.92-2.04-2.05v-3.14h0Z"/>
        <path class="cls-5" d="m166.9,153.77c0,2.87-2.31,5.2-5.16,5.2h-7.92c-2.85,0-5.16-2.33-5.16-5.2s2.31-5.2,5.16-5.2h7.92c2.85,0,5.16,2.33,5.16,5.2Z"/>
        <path class="cls-5" d="m148.66,240.8c0-2.87,2.31-5.2,5.16-5.2h7.92c2.85,0,5.16,2.33,5.16,5.2s-2.31,5.2-5.16,5.2h-7.92c-2.85,0-5.16-2.33-5.16-5.2Z"/>
        <rect class="cls-7" x="149.14" y="160.66" width="17.28" height="73.25"/>
        <path class="cls-8" d="m170.38,158.37c0,1.27-1.02,2.3-2.28,2.3h-20.65c-1.26,0-2.28-1.03-2.28-2.3s1.02-2.3,2.28-2.3h20.65c1.26,0,2.28,1.03,2.28,2.3Z"/>
        <path class="cls-8" d="m145.18,236.21c0-1.27,1.02-2.3,2.28-2.3h20.65c1.26,0,2.28,1.03,2.28,2.3s-1.02,2.3-2.28,2.3h-20.65c-1.26,0-2.28-1.03-2.28-2.3Z"/>
        <path class="cls-5" d="m159.36,149.42c0,1.14-.71,2.05-1.58,2.05s-1.58-.92-1.58-2.05v-3.14c0-1.13.71-2.05,1.58-2.05s1.58.92,1.58,2.05v3.14h0Z"/>
        <path class="cls-5" d="m156.2,245.15c0-1.13.71-2.05,1.58-2.05s1.58.92,1.58,2.05v3.14c0,1.13-.71,2.05-1.58,2.05s-1.58-.92-1.58-2.05v-3.14h0Z"/>
        <path class="cls-6" d="m164.84,153.77c0,2.87-1.79,5.2-3.99,5.2h-6.13c-2.2,0-3.99-2.33-3.99-5.2s1.79-5.2,3.99-5.2h6.13c2.21,0,3.99,2.33,3.99,5.2Z"/>
        <path class="cls-6" d="m150.72,240.8c0-2.87,1.79-5.2,3.99-5.2h6.13c2.2,0,3.99,2.33,3.99,5.2s-1.79,5.2-3.99,5.2h-6.13c-2.21,0-3.99-2.33-3.99-5.2Z"/>
        <rect class="cls-4" x="151.09" y="160.66" width="13.37" height="73.25"/>
        <path class="cls-5" d="m167.53,158.37c0,1.27-.79,2.3-1.76,2.3h-15.97c-.98,0-1.76-1.03-1.76-2.3s.79-2.3,1.76-2.3h15.97c.97,0,1.76,1.03,1.76,2.3Z"/>
        <path class="cls-5" d="m148.03,236.21c0-1.27.79-2.3,1.76-2.3h15.97c.97,0,1.76,1.03,1.76,2.3s-.79,2.3-1.76,2.3h-15.97c-.97,0-1.76-1.03-1.76-2.3Z"/>
        <path class="cls-3" d="m149.13,233.9c-31.82,6.89-63.64,0-63.64,0v-73.25c31.82,6.77,63.64,0,63.64,0v73.25Z"/>
        <path class="cls-1" d="m93.83,170.53s8.19,2.49,23.48,2.49c16.33,0,24.2-2.49,24.2-2.49"/>
        <path class="cls-1" d="m93.83,178.11s8.19,2.49,23.48,2.49c16.33,0,24.2-2.49,24.2-2.49"/>
        <path class="cls-1" d="m93.83,185.68s8.19,2.49,23.48,2.49"/>
        <path class="cls-1" d="m105.57,202.78c3.26.31,7.19.53,11.74.53,16.33,0,24.2-2.49,24.2-2.49"/>
        <path class="cls-1" d="m93.83,208.4s8.19,2.49,23.48,2.49c16.33,0,24.2-2.49,24.2-2.49"/>
        <path class="cls-1" d="m93.83,215.97s8.19,2.49,23.48,2.49c16.33,0,24.2-2.49,24.2-2.49"/>
        <path class="cls-1" d="m93.83,223.55s8.19,2.49,23.48,2.49"/>
      </g>
      <path d="m172.08,247.48c2.33-6.26,5.2-17.62,6.37-25.37l10.4-1.06c-2.44,9.02-7.11,20.8-10.08,25.79l-6.69.64Z"/>
      <g>
        <path class="cls-8" d="m229.49,149.41c0,1.13-.91,2.05-2.04,2.05s-2.04-.92-2.04-2.05v-3.14c0-1.13.91-2.05,2.04-2.05s2.04.92,2.04,2.05v3.14Z"/>
        <path class="cls-8" d="m225.41,245.14c0-1.14.91-2.05,2.04-2.05s2.04.92,2.04,2.05v3.14c0,1.13-.91,2.05-2.04,2.05s-2.04-.92-2.04-2.05v-3.14Z"/>
        <path class="cls-5" d="m236.58,153.76c0,2.87-2.31,5.2-5.16,5.2h-7.92c-2.85,0-5.16-2.33-5.16-5.2s2.31-5.2,5.16-5.2h7.92c2.85,0,5.16,2.33,5.16,5.2Z"/>
        <path class="cls-5" d="m218.33,240.79c0-2.87,2.31-5.2,5.16-5.2h7.92c2.85,0,5.16,2.33,5.16,5.2s-2.31,5.2-5.16,5.2h-7.92c-2.85,0-5.16-2.33-5.16-5.2Z"/>
        <rect class="cls-7" x="218.81" y="160.65" width="17.28" height="73.25"/>
        <path class="cls-8" d="m240.06,158.35c0,1.27-1.02,2.3-2.28,2.3h-20.64c-1.26,0-2.28-1.03-2.28-2.3s1.02-2.3,2.28-2.3h20.65c1.26,0,2.28,1.03,2.28,2.3Z"/>
        <path class="cls-8" d="m214.85,236.19c0-1.27,1.02-2.3,2.28-2.3h20.65c1.26,0,2.28,1.03,2.28,2.3s-1.02,2.3-2.28,2.3h-20.65c-1.26,0-2.28-1.03-2.28-2.3Z"/>
        <path class="cls-5" d="m229.03,149.41c0,1.13-.71,2.05-1.58,2.05s-1.58-.92-1.58-2.05v-3.14c0-1.13.71-2.05,1.58-2.05s1.58.92,1.58,2.05v3.14Z"/>
        <path class="cls-5" d="m225.88,245.14c0-1.14.71-2.05,1.58-2.05s1.58.92,1.58,2.05v3.14c0,1.13-.71,2.05-1.58,2.05s-1.58-.92-1.58-2.05v-3.14Z"/>
        <path class="cls-6" d="m234.51,153.76c0,2.87-1.79,5.2-3.99,5.2h-6.13c-2.21,0-3.99-2.33-3.99-5.2s1.79-5.2,3.99-5.2h6.13c2.21,0,3.99,2.33,3.99,5.2Z"/>
        <path class="cls-6" d="m220.4,240.79c0-2.87,1.79-5.2,3.99-5.2h6.13c2.21,0,3.99,2.33,3.99,5.2s-1.79,5.2-3.99,5.2h-6.13c-2.21,0-3.99-2.33-3.99-5.2Z"/>
        <rect class="cls-4" x="220.77" y="160.65" width="13.37" height="73.25"/>
        <path class="cls-5" d="m237.2,158.35c0,1.27-.79,2.3-1.76,2.3h-15.97c-.97,0-1.76-1.03-1.76-2.3s.79-2.3,1.76-2.3h15.97c.97,0,1.76,1.03,1.76,2.3Z"/>
        <path class="cls-5" d="m217.7,236.19c0-1.27.79-2.3,1.76-2.3h15.97c.97,0,1.76,1.03,1.76,2.3s-.79,2.3-1.76,2.3h-15.97c-.98,0-1.76-1.03-1.76-2.3Z"/>
        <path class="cls-8" d="m310.43,149.42c0,1.14-.91,2.05-2.04,2.05s-2.04-.92-2.04-2.05v-3.14c0-1.13.91-2.05,2.04-2.05s2.04.92,2.04,2.05v3.14h0Z"/>
        <path class="cls-8" d="m306.35,245.15c0-1.13.91-2.05,2.04-2.05s2.04.92,2.04,2.05v3.14c0,1.13-.91,2.05-2.04,2.05s-2.04-.92-2.04-2.05v-3.14Z"/>
        <path class="cls-5" d="m317.51,153.77c0,2.87-2.31,5.2-5.16,5.2h-7.92c-2.85,0-5.16-2.33-5.16-5.2s2.31-5.2,5.16-5.2h7.92c2.85,0,5.16,2.33,5.16,5.2Z"/>
        <path class="cls-5" d="m299.26,240.8c0-2.87,2.31-5.2,5.16-5.2h7.92c2.85,0,5.16,2.33,5.16,5.2s-2.31,5.2-5.16,5.2h-7.92c-2.85,0-5.16-2.33-5.16-5.2Z"/>
        <rect class="cls-7" x="299.74" y="160.66" width="17.28" height="73.25"/>
        <path class="cls-8" d="m320.99,158.37c0,1.27-1.02,2.3-2.28,2.3h-20.65c-1.26,0-2.28-1.03-2.28-2.3s1.02-2.3,2.28-2.3h20.65c1.26,0,2.28,1.03,2.28,2.3Z"/>
        <path class="cls-8" d="m295.78,236.21c0-1.27,1.02-2.3,2.28-2.3h20.65c1.26,0,2.28,1.03,2.28,2.3s-1.02,2.3-2.28,2.3h-20.65c-1.26,0-2.28-1.03-2.28-2.3Z"/>
        <path class="cls-5" d="m309.97,149.42c0,1.14-.71,2.05-1.58,2.05s-1.58-.92-1.58-2.05v-3.14c0-1.13.71-2.05,1.58-2.05s1.58.92,1.58,2.05v3.14Z"/>
        <path class="cls-5" d="m306.81,245.15c0-1.13.71-2.05,1.58-2.05s1.58.92,1.58,2.05v3.14c0,1.13-.71,2.05-1.58,2.05s-1.58-.92-1.58-2.05v-3.14Z"/>
        <path class="cls-6" d="m315.44,153.77c0,2.87-1.79,5.2-3.99,5.2h-6.13c-2.2,0-3.99-2.33-3.99-5.2s1.79-5.2,3.99-5.2h6.13c2.21,0,3.99,2.33,3.99,5.2Z"/>
        <path class="cls-6" d="m301.33,240.8c0-2.87,1.79-5.2,3.99-5.2h6.13c2.2,0,3.99,2.33,3.99,5.2s-1.79,5.2-3.99,5.2h-6.13c-2.21,0-3.99-2.33-3.99-5.2Z"/>
        <rect class="cls-4" x="301.7" y="160.66" width="13.37" height="73.25"/>
        <path class="cls-5" d="m318.14,158.37c0,1.27-.79,2.3-1.76,2.3h-15.97c-.98,0-1.76-1.03-1.76-2.3s.79-2.3,1.76-2.3h15.97c.97,0,1.76,1.03,1.76,2.3Z"/>
        <path class="cls-5" d="m298.64,236.21c0-1.27.79-2.3,1.76-2.3h15.97c.97,0,1.76,1.03,1.76,2.3s-.79,2.3-1.76,2.3h-15.97c-.97,0-1.76-1.03-1.76-2.3Z"/>
        <path class="cls-3" d="m299.74,233.9c-31.82,6.89-63.64,0-63.64,0v-73.25c31.82,6.77,63.64,0,63.64,0v73.25Z"/>
        <path class="cls-1" d="m244.44,170.53s8.19,2.49,23.48,2.49c16.33,0,24.2-2.49,24.2-2.49"/>
        <path class="cls-1" d="m244.44,178.11s8.19,2.49,23.48,2.49c16.33,0,24.2-2.49,24.2-2.49"/>
        <path class="cls-1" d="m244.44,185.68s8.19,2.49,23.48,2.49"/>
        <path class="cls-1" d="m256.18,202.78c3.26.31,7.19.53,11.74.53,16.33,0,24.2-2.49,24.2-2.49"/>
        <path class="cls-1" d="m244.44,208.4s8.19,2.49,23.48,2.49c16.33,0,24.2-2.49,24.2-2.49"/>
        <path class="cls-1" d="m244.44,215.97s8.19,2.49,23.48,2.49c16.33,0,24.2-2.49,24.2-2.49"/>
        <path class="cls-1" d="m244.44,223.55s8.19,2.49,23.48,2.49"/>
      </g>
      <path d="m323.11,247.27c7.54-10.51,13.37-24.31,13.37-43.41s-5.73-32.58-13.37-43.09h7.22c6.79,8.7,13.91,22.29,13.91,43.2s-7.11,34.28-13.91,43.3h-7.22Z"/>
    </g>
  </g>
</svg>