<svg width="96" height="96" viewBox="0 0 96 96" fill="none" xmlns="http://www.w3.org/2000/svg">
<path d="M21.6512 28.3657C36.2032 13.896 59.7967 13.896 74.3487 28.3657L86.9189 40.8648L74.3488 53.3638C59.7967 67.8336 36.2032 67.8336 21.6512 53.3638L9.08105 40.8648L21.6512 28.3657Z" fill="black"/>
<path fill-rule="evenodd" clip-rule="evenodd" d="M0 40.8845L28.5405 12.3242H67.4595L96 40.8845L48 88.8648L0 40.8845ZM70.0541 30.4862C57.9274 18.3063 38.0726 18.3064 25.9459 30.4863L15.5676 40.8648L25.9459 51.2433C38.0726 63.4232 57.9274 63.4231 70.0541 51.2432L80.4324 40.8648L70.0541 30.4862Z" fill="#0CE466"/>
<path d="M48 49.9459C42.9867 49.9459 38.9189 45.8822 38.9189 40.8648C38.9189 35.8474 42.9867 31.7837 48 31.7837C53.0133 31.7837 57.0811 35.8474 57.0811 40.8648C57.0811 45.8822 53.0133 49.9459 48 49.9459Z" fill="black"/>
<path fill-rule="evenodd" clip-rule="evenodd" d="M33.0811 40.865C33.0811 49.1078 39.7638 55.7839 48 55.7839C56.2361 55.7839 62.9189 49.1078 62.9189 40.865C62.9189 32.6221 56.2361 25.946 48 25.946C39.7638 25.946 33.0811 32.6221 33.0811 40.865ZM41.5135 40.865C41.5135 44.4488 44.419 47.3515 48 47.3515C51.5809 47.3515 54.4865 44.4488 54.4865 40.865C54.4865 37.2811 51.5809 34.3785 48 34.3785C44.419 34.3785 41.5135 37.2811 41.5135 40.865Z" fill="white"/>
</svg>
