<?xml version="1.0" encoding="UTF-8"?>
<svg id="Layer_2" data-name="Layer 2" xmlns="http://www.w3.org/2000/svg" viewBox="0 0 391.08 391.08">
  <defs>
    <style>
      .cls-1 {
        fill: #eee8df;
      }

      .cls-2 {
        fill: #1c2330;
        fill-rule: evenodd;
      }
    </style>
  </defs>
  <g id="Layer_2-2" data-name="Layer 2">
    <g id="Layer_1-2" data-name="Layer 1-2">
      <circle class="cls-1" cx="195.54" cy="195.54" r="195.54"/>
      <path class="cls-2" d="m213.84,270.21h0v8.32h65.73v-23.43h-32.45c19.55-14.56,32.03-37.3,32.03-62.81,0-44.09-37.44-79.73-83.61-79.73s-83.61,35.64-83.61,79.73c0,25.51,12.48,48.12,32.03,62.81h-32.45v23.43h65.73v-.42h0v-31.06c-23.99-7.49-41.18-28.98-41.18-54.49,0-31.62,26.62-57.27,59.63-57.27s59.63,25.65,59.63,57.27c0,25.51-17.33,47.15-41.18,54.49v23.16h-.28Z"/>
    </g>
  </g>
</svg>