<?xml version="1.0" encoding="UTF-8"?>
<svg id="Layer_2" data-name="Layer 2" xmlns="http://www.w3.org/2000/svg" viewBox="0 0 391.08 391.08">
  <defs>
    <style>
      .cls-1 {
        fill: #002147;
      }

      .cls-2 {
        fill: #fff;
      }
    </style>
  </defs>
  <g id="Layer_1-2" data-name="Layer 1">
    <circle class="cls-1" cx="195.54" cy="195.54" r="195.54"/>
    <path class="cls-1" d="m59.52,61.11h266.72v266.35H59.52V61.11Z"/>
    <g>
      <path class="cls-2" d="m119.16,281.24c0,10.09-7.78,17.41-17.5,17.41s-17.5-7.41-17.5-17.04,7.78-17.41,17.5-17.41,17.5,7.41,17.5,17.04Zm-5.56.19c0-9.17-4.45-15.56-11.95-15.56-8.15,0-11.95,7.69-11.95,15.56,0,9.17,4.45,15.56,11.95,15.56,8.15-.09,11.95-7.69,11.95-15.56Zm112.34-.19c0,10.09-7.78,17.41-17.5,17.41s-17.5-7.41-17.5-17.04,7.78-17.41,17.5-17.41,17.5,7.41,17.5,17.04Zm-5.56.19c0-9.17-4.45-15.56-11.95-15.56-8.15,0-11.95,7.69-11.95,15.56,0,9.17,4.45,15.56,11.95,15.56,8.15-.09,11.95-7.69,11.95-15.56Zm19.08.19h4.17c6.3,0,7.69-3.98,7.69-7.78,0-2.87-1.3-5.56-4.26-6.85-1.57-.65-3.06-.65-5.09-.65h-2.5v15.28Zm7.69,5.28c-1.94-2.78-2.69-3.8-5.09-3.8h-2.59v11.3c0,.93.37,1.39,1.39,1.57l3.8.83v1.2h-14.91v-1.2l3.43-.83c1.02-.28,1.39-.65,1.39-1.57v-26.12c0-.93-.37-1.3-1.39-1.57l-3.43-.83v-1.2h14.54c3.06,0,5.19.28,6.95.93,3.61,1.39,5.65,4.82,5.65,8.06,0,4.07-3.06,7.5-8.15,8.71v.19c1.02.46,1.57,1.11,5.19,5.83l4.54,6.02c.65.93,1.48,1.48,2.5,1.67l3.33.74v1.2h-7.96c-.93,0-1.39-.28-2.22-1.39l-6.95-9.72Zm-65.29-10.74h1.39v11.11h-1.39l-.83-3.33c-.28-1.2-1.02-1.67-2.13-1.67h-8.06v12.22c0,.93.37,1.39,1.39,1.57l3.8.83v1.2h-14.91v-1.2l3.43-.83c1.02-.28,1.39-.65,1.39-1.57v-26.12c0-.93-.37-1.3-1.39-1.57l-3.43-.83v-1.2h25.19v8.33h-1.39l-1.57-5c-.37-1.3-.93-1.76-2.04-1.76h-10.47v14.35h8.06c1.11,0,1.76-.46,2.13-1.67l.83-2.87Zm85.11,21.86v-1.2l3.43-.83c1.02-.28,1.39-.65,1.39-1.57v-26.12c0-.93-.37-1.3-1.39-1.57l-3.43-.83v-1.2h15.65c4.26,0,7.32.56,9.82,1.67,6.3,2.87,9.17,9.08,9.17,15.19s-2.22,11.48-7.87,14.45c-2.59,1.39-6.2,2.04-10.93,2.04h-15.84Zm9.72-31.67v28.71c0,1.2.28,1.48,1.48,1.48h4.07c3.89,0,6.76-.56,8.8-2.04,3.43-2.5,5-7.04,5-12.78s-1.57-11.21-6.2-13.89c-1.94-1.11-4.45-1.48-8.33-1.48h-4.82Zm-144.47,30.47v1.2h-11.76v-1.2l2.96-.74c1.11-.28,1.85-.65,2.59-1.48l10.19-12.78-10.19-13.52c-.65-.93-1.48-1.39-2.5-1.67l-2.78-.74v-1.2h14.63v1.2l-3.15.65c-1.11.19-.83.65-.28,1.39l7.5,10.74h.19l7.69-10.74c.56-.74.74-1.02-.28-1.3l-2.96-.74v-1.2h11.76v1.2l-2.96.74c-1.11.28-1.85.65-2.59,1.48l-9.63,12.13,10.74,14.17c.65.93,1.48,1.39,2.5,1.67l2.78.74v1.2h-14.73v-1.2l3.15-.65c1.11-.19.93-.56.37-1.3l-8.15-11.48h-.19l-8.15,11.48c-.56.74-.74,1.02.28,1.3l2.96.65Zm-35.1-47.79c-.93.93-2.32,1.57-4.26,1.57-1.67,0-3.24-.56-4.26-1.57-1.48-1.48-1.39-3.24-1.39-5.19v-9.26h1.85v9.91c0,1.3,0,2.5.93,3.43.65.65,1.67,1.02,2.87,1.02s2.13-.37,2.69-1.02c1.11-1.11,1.02-2.22,1.02-5.09v-8.33h1.85v7.87c.09,2.96.28,5.19-1.3,6.67h0Zm16.76,1.3l-7.59-12.97.09,12.97h-1.76v-15.74h1.94l7.59,13.06v-13.15h1.76v15.74h-2.04v.09Zm8.52,0v-15.74h1.94v15.74h-1.94Zm13.71,0h-2.13l-5.46-15.74h1.94l4.63,13.89,4.72-13.89h1.85l-5.56,15.74Zm9.91,0v-15.74h8.61v1.57h-6.76v5.19h6.3v1.57h-6.3v5.83h6.95v1.67l-8.8-.09Zm20.74-13.43c-.93-.93-2.04-.83-3.33-.83h-1.76v5.93h.65c1.57,0,3.33.09,4.35-1.02.56-.56.83-1.3.83-2.04,0-.93-.37-1.67-.74-2.04h0Zm1.76,13.43l-1.85-4.07c-1.11-2.5-1.67-2.78-3.89-2.78h-1.11v6.85h-1.85v-15.74h3.43c2.13,0,3.7,0,4.91,1.2.83.83,1.2,1.85,1.2,3.15,0,1.11-.28,2.04-1.02,2.69-.56.65-1.48,1.11-2.5,1.2.56,0,1.02.37,1.3.65.46.46.74,1.11,1.2,2.13l2.13,4.72h-1.94Zm20.37,0v-15.74h1.94v15.74h-1.94Zm12.69-14.26v14.17h-1.94v-14.17h-4.72v-1.57h11.3v1.57h-4.63Zm13.8,7.96v6.2h-1.85v-6.2l-5-9.54h2.13l3.89,7.41,3.8-7.41h2.04l-5,9.54Zm22.69-8.24c-3.06,0-5.09,2.59-5.09,6.58s2.22,6.58,5.19,6.58c3.33,0,5.09-2.78,5.09-6.76.09-3.8-2.13-6.39-5.19-6.39h0Zm0,14.82c-4.07,0-7.04-3.33-7.04-8.15s2.96-8.24,7.22-8.24,7.04,3.33,7.04,8.15-2.87,8.24-7.22,8.24Zm14.35-14.54v5.19h6.11v1.57h-6.11v7.5h-1.85v-15.74h8.43v1.57h-6.58v-.09Zm-78.16,2.32c0-2.41,1.94-4.17,4.82-4.17s4.26,1.48,4.45,1.67l-.93,1.11c-.37-.28-1.57-1.2-3.33-1.2-2.04,0-3.15,1.02-3.15,2.5,0,.65.28,1.2.74,1.57.56.46,1.3.83,2.22,1.2,1.02.46,2.5,1.02,3.52,2.04.65.74,1.2,1.57,1.2,2.87,0,2.59-1.85,4.63-5.09,4.63-2.78,0-4.54-1.57-4.72-1.67l.83-1.3c.46.37,2.22,1.39,3.8,1.39,2.41,0,3.24-1.3,3.24-2.87,0-.74-.37-1.3-.83-1.76-.74-.74-1.85-1.2-2.96-1.67-1.02-.46-2.04-1.02-2.78-1.76-.56-.56-1.02-1.39-1.02-2.59h0Zm93.26-114.19v23.62h-17.04l-.19.46c-.28.74-.83,1.39-2.69,1.39s-2.41-.65-2.69-1.39l-.19-.46h-17.04v-23.62h-1.57v.74l-1.48-.46c-.19-.56-.74-1.02-1.3-1.02-.74,0-1.39.65-1.39,1.39s.65,1.39,1.39,1.39c.37,0,.65-.09.93-.37l1.94.56v1.85l-1.48-.28c-.19-.46-.74-.83-1.3-.83-.74,0-1.39.65-1.39,1.39s.65,1.39,1.39,1.39c.37,0,.74-.19,1.02-.46l1.76.28v1.94l-1.48-.09c-.28-.37-.65-.65-1.2-.65-.74,0-1.39.65-1.39,1.39s.65,1.39,1.39,1.39c.46,0,.83-.28,1.11-.56l1.57.09v2.13l-1.57.09c-.28-.37-.65-.56-1.11-.56-.74,0-1.39.65-1.39,1.39s.65,1.39,1.39,1.39c.46,0,.93-.28,1.2-.65l1.48-.09v1.94l-1.67.28c-.28-.28-.65-.46-1.02-.46-.74,0-1.39.65-1.39,1.39s.65,1.39,1.39,1.39c.56,0,1.11-.37,1.3-.83l1.39-.28v1.94l-1.85.56c-.28-.19-.56-.37-.93-.37-.74,0-1.39.65-1.39,1.39s.65,1.39,1.39,1.39c.65,0,1.2-.46,1.3-1.02l1.39-.46v1.85l-2.04.93c-.19-.19-.46-.28-.74-.28-.74,0-1.39.65-1.39,1.39s.65,1.39,1.39,1.39c.65,0,1.3-.46,1.39-1.2l1.48-.65v1.67h17.69c.74,1.3,1.94,1.94,3.8,1.94s3.15-.65,3.8-1.94h17.69v-24.73h-1.67Z"/>
      <ellipse class="cls-2" cx="235.94" cy="117.6" rx="6.48" ry="1.2"/>
      <path class="cls-2" d="m244.83,108.62l-3.7,2.59v.28l.93.37c.19.09.19.19.09.28l-2.32,1.94h-.19l-1.67-2.41c-.09-.19-.09-.28.09-.37l1.11-.19v-.28l-2.87-4.07h-.46l-2.87,4.07v.28l1.11.19c.19,0,.28.19.09.37l-1.67,2.41h-.19l-2.22-1.94c-.09-.09-.09-.19.09-.28l.93-.37v-.28l-3.89-2.59-.28.09,2.32,6.95c1.2-.56,3.8-.93,6.95-.93s5.74.37,6.95.93l2.32-6.95-.65-.09Z"/>
      <ellipse class="cls-2" cx="247.52" cy="164.28" rx="6.48" ry="1.2"/>
      <path class="cls-2" d="m256.41,155.39l-3.7,2.59v.28l.93.37c.19.09.19.19.09.28l-2.32,1.94h-.19l-1.67-2.41c-.09-.19-.09-.28.09-.37l1.11-.19v-.28l-2.87-4.07h-.46l-2.87,4.07v.28l1.11.19c.19,0,.28.19.09.37l-1.67,2.41h-.19l-2.22-1.94c-.09-.09-.09-.19.09-.28l.93-.37v-.28l-3.89-2.59-.28.09,2.32,6.95c1.2-.56,3.8-.93,6.95-.93s5.74.37,6.95.93l2.32-6.95-.65-.09Z"/>
      <ellipse class="cls-2" cx="259.1" cy="117.6" rx="6.48" ry="1.2"/>
      <path class="cls-2" d="m267.99,108.62l-3.7,2.59v.28l.93.37c.19.09.19.19.09.28l-2.32,1.94h-.19l-1.67-2.41c-.09-.19-.09-.28.09-.37l1.11-.19v-.28l-2.87-4.07h-.46l-2.87,4.07v.28l1.11.19c.19,0,.28.19.09.37l-1.67,2.41h-.19l-2.22-2.04c-.09-.09-.09-.19.09-.28l.93-.37v-.28l-3.89-2.59-.28.09,2.32,6.95c1.2-.56,3.8-.93,6.95-.93s5.74.37,6.95.93l2.32-6.95h-.65Zm-21.21,19.08c0-1.94-.65-3.61-2.13-4.45-.93-.56-2.13-.74-3.7-.74h-11.02v22.32h12.04c2.78,0,4.45.65,4.54,3.15h.28v-20.28Zm-8.15,1.39c.28,0,.37-.09.37-.28s.09-.37.09-.83l.09-1.02q0-.65-.37-.74v-.19h1.11l.83,1.94.74-1.94h1.2v.19c-.37,0-.37.09-.37.56l.09,1.67q0,.56.37.56v.19h-1.57v-.19c.37,0,.37-.09.37-.56v-1.76l-.93,2.5h-.28l-.93-2.32v1.94c0,.19.09.19.46.28v.19h-1.2l-.09-.19Zm2.87,4.91c-.46-.19-.93-.46-.93-1.02s.37-1.02,1.2-1.02c.19,0,.28,0,.46.09.09,0,.19.09.28.09,0,.19.09.46.09.74h-.19c-.09-.28-.28-.65-.65-.65-.28,0-.46.19-.46.46s.19.37.46.56l.09.09c.46.19.83.46.83,1.02,0,.65-.46,1.02-1.2,1.02-.19,0-.37,0-.56-.09s-.28-.09-.28-.09c0-.19-.09-.46-.19-.83l.19-.09c.09.28.37.83.83.83.28,0,.46-.19.46-.46,0-.37-.19-.56-.46-.65h0Zm-3.24-1.57c.09.28.46,1.2.65,1.76.19-.46.46-1.39.56-1.57.09-.28.09-.37-.19-.37h-.19v-.19h1.2v.19c-.28,0-.37.09-.56.46,0,.09-.65,1.57-1.02,2.5h-.37c-.37-.93-.83-2.13-1.02-2.59s-.28-.46-.46-.46v-.19h1.57v.19h-.19c-.09.09-.09.19,0,.28Zm-1.48-6.39c.93,0,1.57.65,1.57,1.67s-.74,1.67-1.67,1.67c-1.02,0-1.67-.74-1.67-1.67.09-.74.65-1.67,1.76-1.67h0Zm-5.46,3.24v-.19c.37,0,.37-.09.37-.56v-1.67q0-.56-.37-.56v-.19h1.48c.65,0,1.11.09,1.48.46.28.19.46.56.46,1.02,0,1.2-.93,1.76-2.04,1.76h-1.39v-.09Zm3.33,8.8c-.37,0-.37.09-.37.56v1.67q0,.56.37.56v.19h-1.57v-.19c.37,0,.37-.09.37-.56v-1.67q0-.56-.37-.56v-.19h1.57v.19Zm0-2.87h-1.2v-.19c.19,0,.37-.09.37-.28v-1.85c0-.37,0-.46-.09-.56s-.19-.09-.37-.19v-.19h1.11l1.67,2.04v-1.57c0-.19-.19-.28-.46-.28v-.19h1.3v.19c-.28,0-.37.09-.37.28v2.78h-.46l-1.85-2.32v1.85c0,.19.19.28.46.28l-.09.19Zm2.69,5.93h-2.41v-.19c.37,0,.37-.09.37-.56v-1.67q0-.56-.37-.56v-.19h1.57v.19c-.37,0-.37.09-.37.56v1.67c0,.28,0,.37.09.46h.37c.19,0,.37,0,.46-.19.09-.09.19-.19.28-.46h.19c0,.28-.09.74-.19.93h0Zm2.78,0h-2.41v-.19c.37,0,.37-.09.37-.56v-1.67q0-.56-.37-.56v-.19h1.57v.19c-.37,0-.37.09-.37.56v1.67c0,.28,0,.37.09.46h.37c.19,0,.37,0,.46-.19.09-.09.19-.19.28-.46h.19c0,.28-.19.74-.19.93h0Zm3.06-3.06c-.28,0-.37.09-.56.46,0,.09-.65,1.57-1.02,2.5h-.37c-.37-.93-.83-2.13-1.02-2.59s-.28-.46-.46-.46v-.19h1.57v.19h-.19c-.19,0-.19.09-.09.28.09.28.46,1.2.65,1.76.19-.46.46-1.39.56-1.57.09-.28.09-.37-.19-.37h-.19v-.19h1.2l.09.19Zm1.57-11.76c-.37,0-.37.09-.37.56v1.67q0,.56.37.56v.19h-1.57v-.19c.37,0,.37-.09.37-.56v-1.67q0-.56-.37-.56v-.19h1.57v.19Z"/>
      <path class="cls-2" d="m232.79,126.4h-.19v2.13c0,.46.09.56.37.56.46,0,.83-.46.83-1.3-.09-1.11-.56-1.39-1.02-1.39h0Zm4.07,2.69c.46,0,.65-.37.65-1.3,0-1.02-.37-1.57-.74-1.57s-.65.46-.65,1.3c-.09.93.19,1.57.74,1.57Zm23.43,9.82l-.28.93h.65l-.37-.93Zm1.2-11.76l-.37.93h.65l-.28-.93Zm-2.78,6.39c0,.93.37,1.57.83,1.57s.65-.37.65-1.3c0-1.02-.37-1.57-.74-1.57-.46,0-.74.37-.74,1.3h0Z"/>
      <path class="cls-2" d="m254.09,122.6c-1.48,0-2.78.19-3.7.74-1.48.83-2.13,2.41-2.13,4.45v20.28h.28c.19-2.5,1.76-3.15,4.54-3.15h12.13v-22.32h-11.11Zm2.59,3.52h1.11l1.67,2.04v-1.57c0-.19-.19-.28-.46-.28v-.19h1.3v.19c-.28,0-.37.09-.37.28v2.78h-.46l-1.85-2.32v1.85c0,.19.19.28.46.28v.19h-1.3v-.19c.19,0,.37-.09.37-.28v-1.85c0-.37,0-.46-.09-.56s-.19-.09-.37-.19v-.19Zm4.45,7.41c0,1.02-.74,1.67-1.67,1.67-1.02,0-1.67-.74-1.67-1.67,0-.83.56-1.76,1.67-1.76.93.19,1.67.83,1.67,1.76Zm-3.7,1.48v.19h-1.57v-.19c.37,0,.37-.09.37-.56v-1.67q0-.56-.37-.56v-.19h1.57v.19c-.37,0-.37.09-.37.56v1.67c0,.46,0,.56.37.56Zm-2.59-5.93c.37,0,.37-.09.37-.56v-1.67q0-.56-.37-.56v-.19h1.57v.19c-.37,0-.37.09-.37.56v1.67q0,.56.37.56v.19h-1.57v-.19Zm.09,5.93v.19h-1.76v-.19c.37,0,.46-.09.46-.56v-2.13h-.09c-.37,0-.46.09-.56.19s-.09.19-.19.46h-.19c0-.37.09-.74.09-1.02h.19q.09.09.28.09h1.94c.09,0,.19,0,.28-.09h.19c0,.19,0,.65.09,1.02h-.19c-.09-.28-.09-.46-.19-.46-.09-.09-.28-.09-.46-.09h-.09v2.13c-.28.37-.28.46.19.46h0Zm-3.33-5.74h-1.2v-.19c.28,0,.37-.09.37-.28s.09-.37.09-.83l.09-1.02q0-.65-.37-.74v-.19h1.11l.83,1.94.74-1.94h1.2v.19c-.37,0-.37.09-.37.56l.09,1.67q0,.56.37.56v.19h-1.57v-.19c.37,0,.37-.09.37-.56v-1.76l-.93,2.5h-.28l-.93-2.32v1.94c0,.19.09.19.46.28l-.09.19Zm4.35,11.85h-1.57v-.19c.37,0,.37-.09.37-.56v-1.76l-.93,2.5h-.28l-.93-2.32v1.94c0,.19.09.19.46.28v.19h-1.2v-.19c.28,0,.37-.09.37-.28s.09-.37.09-.83l.09-1.02q0-.65-.37-.74v-.19h1.11l.83,1.94.74-1.94h1.2v.19c-.37,0-.37.09-.37.56l.09,1.67q0,.56.37.56l-.09.19Zm2.78,0h-2.5v-.19c.37,0,.46-.09.46-.56v-1.67q0-.56-.37-.56v-.19h2.32c0,.09,0,.46.09.83h-.19c-.09-.28-.09-.37-.19-.46s-.28-.09-.46-.09h-.19q-.19,0-.19.19v.93h.28q.46,0,.46-.37h.19v1.2h-.19q-.09-.46-.46-.46h-.28v.83c0,.28,0,.37.09.46h.37c.19,0,.37,0,.56-.19.09-.09.19-.28.28-.46h.19c-.09.09-.19.56-.28.74h0Zm3.43,0h-1.57v-.19h.19c.19,0,.19-.09.09-.28l-.19-.46h-.83l-.19.46c-.09.19-.09.28.19.28h.19v.19h-1.11v-.19c.28,0,.37-.09.46-.46l1.02-2.5.37-.09.37.93c.19.56.46,1.2.65,1.67s.28.46.46.46l-.09.19Zm1.2-11.85h-1.57v-.19h.19c.19,0,.19-.09.09-.28l-.19-.46h-.83l-.19.46c-.09.19-.09.28.19.28h.19v.19h-1.11v-.19c.28,0,.37-.09.46-.46l1.02-2.5.37-.09.37.93c.19.56.46,1.2.65,1.67s.28.46.46.46l-.09.19Z"/>
      <circle class="cls-2" cx="241.87" cy="180.67" r="1.3"/>
      <circle class="cls-2" cx="254.84" cy="182.8" r="1.3"/>
      <circle class="cls-2" cx="247.52" cy="89.82" r="1.3"/>
      <circle class="cls-2" cx="278.08" cy="101.86" r="1.3"/>
      <path class="cls-2" d="m214.92,157.14c.46.74.74,1.48.74,2.22,0,.93-.28,1.67-1.94,2.78l-4.63,3.33-.83-1.2s4.72-3.43,4.82-3.43c.83-.56,1.2-1.02,1.2-1.67,0-.37-.19-.83-.46-1.3-.46-.65-1.02-.93-1.57-.93-.46,0-1.02.37-1.94,1.02l-4.35,2.96-.83-1.2,4.17-2.78c1.11-.83,2.04-1.39,2.96-1.39,1.2-.09,2.13.74,2.69,1.57h0Zm-14.91-9.08l8.8-3.06.46,1.3-5.09,6.2,6.39-2.5.46,1.3-8.71,3.33-.46-1.3,5.09-6.2-6.48,2.32-.46-1.39Zm-1.3-7.04l9.26-1.39.19,1.48-9.26,1.39-.19-1.48Zm-.28-11.21v-1.57l9.26,3.8-.09,1.57-9.45,2.87v-1.57l7.69-2.13-7.41-2.96Zm8.43-20.93c-1.3,0-1.94.74-2.78,2.32l-1.11,1.94,8.24,4.45.74-1.3-3.43-1.85.19-.37c.56-1.02.74-1.2,2.22-1.11l2.69.28.74-1.39-3.06-.28c-.65-.09-1.11-.09-1.48,0-.09,0-.28.09-.46.19,0-.19.09-.37.09-.46,0-.28,0-.56-.09-.74-.19-.56-.56-1.02-1.2-1.3-.37-.19-.83-.37-1.3-.37h0Zm-1.67,2.87c.56-1.02.93-1.39,1.48-1.39.19,0,.46.09.74.19.37.19.65.56.74.83,0,.09.09.28.09.37,0,.56-.28,1.11-.65,1.67l-.19.37-2.59-1.39.37-.65Zm11.95-16.02l1.2-.93,5.65,7.41-1.2.93-5.65-7.41Zm5.09-3.7l6.02-3.15.56,1.11-2.32,1.2,3.7,7.13-1.3.65-3.7-7.13-2.41,1.2-.56-1.02Zm15.1-5.93l1.57-.46-1.3,6.3,1.02,3.52-1.39.37-1.02-3.52-4.45-4.63,1.57-.46,3.15,3.33.83-4.45Zm28.52,12.78l4.72-8.06,4.45,2.59-.65,1.11-3.15-1.85-1.3,2.22,2.96,1.76-.65,1.11-2.96-1.76-2.13,3.61-1.3-.74Zm24.08,20.84l3.43-4.07.56,1.57-2.5,2.87,3.8.83.46,1.48-5.19-1.2-3.7,4.35-.56-1.57,2.78-3.24-4.17-.93-.46-1.57,5.56,1.48Zm-2.69,9.17l9.35-.74.46,5.19-1.3.09-.28-3.7-2.59.19.28,3.52-1.2.09-.28-3.52-4.26.37-.19-1.48Zm4.07,8.33c-1.11,0-2.04.28-2.87.83-1.39,1.02-1.67,2.5-1.67,3.33,0,3.15,2.96,4.45,5.19,4.45,1.11,0,2.04-.28,2.87-.83,1.57-1.11,1.67-2.87,1.67-3.43,0-2.78-2.5-4.35-5.19-4.35h0Zm.74,7.13c-1.85,0-3.98-1.02-3.98-2.87,0-.65.28-1.57,1.02-2.13.56-.37,1.3-.65,2.13-.65.93,0,2.59.28,3.52,1.48.28.37.46.93.46,1.39,0,.74-.28,1.57-1.02,2.13-.56.46-1.3.65-2.13.65Zm-6.11-38.25c-.93,0-1.94.28-2.96.93-1.76,1.11-2.41,2.78-2.41,3.98,0,.74.19,1.57.65,2.22,1.02,1.57,2.5,1.94,3.52,1.94.93,0,1.94-.28,2.96-.93,1.11-.74,2.41-2.13,2.41-3.98,0-.74-.19-1.48-.65-2.22-.83-1.3-2.13-1.94-3.52-1.94Zm-1.48,7.59c-.83,0-1.57-.37-2.13-1.2-.28-.46-.37-.83-.37-1.3,0-1.02.65-2.13,1.85-2.96.83-.56,1.57-.74,2.32-.74.93,0,1.67.37,2.13,1.2.28.46.46.93.46,1.39,0,1.02-.65,2.04-1.85,2.78-.83.56-1.67.83-2.41.83Zm-24.08-26.86c-1.94,0-3.61,1.3-4.35,3.61-.19.56-.28,1.02-.28,1.48,0,.93.19,1.67.56,2.41.83,1.57,2.41,2.13,3.61,2.13.65,0,1.3-.19,1.94-.46,1.57-.83,2.59-2.87,2.59-4.82,0-.83-.19-1.57-.56-2.32-.65-1.3-2.04-2.04-3.52-2.04h0Zm-.46,8.33c-.65,0-1.67-.37-2.22-1.3-.28-.46-.37-1.11-.37-1.67,0-1.67,1.11-3.98,3.15-3.98,1.11,0,2.59.83,2.59,2.96,0,1.2-.93,3.98-3.15,3.98h0Zm-51.31,25.56l1.3.37-1.39,5.09-9.08-2.5,1.57-5.19,1.2.37-1.11,3.7,2.5.65.93-3.43,1.2.37-.93,3.43,2.78.74,1.02-3.61Zm2.41-19.54c1.3-1.48,2.59-1.39,2.59-1.39l.19,1.2s-1.02,0-1.85.93c-.37.37-.56.83-.56,1.2,0,.28.09.56.37.74.65.56,1.76-.09,2.41-.37.56-.19,1.3-.56,2.04-.56.56,0,1.11.19,1.67.65.65.56.93,1.3.93,1.94,0,.83-.28,1.48-.93,2.22-1.2,1.3-2.78,1.48-2.78,1.48l-.28-1.3c.93-.19,1.67-.56,2.13-1.11.37-.37.46-.83.46-1.2s-.19-.65-.46-.93c-.28-.19-.56-.28-.83-.28-.56,0-1.3.37-1.94.56-1.11.46-2.32.83-3.43-.09-.56-.46-.83-1.11-.83-1.76.19-.46.46-1.3,1.11-1.94h0Zm73.72,48.16l3.52,1.57-.19.37c-.46,1.11-.65,1.3-2.13,1.3h-2.69l-.65,1.48h3.06c.65,0,1.11,0,1.48-.19.09-.09.28-.09.37-.28v.28c0,.37.09.65.19,1.02.46,1.02,1.57,1.48,2.41,1.48,1.48,0,2.04-.93,2.78-2.5,0-.09.83-2.04.83-2.04l-8.52-3.8-.46,1.3Zm5.56,5.46c-.46,0-1.11-.28-1.39-.93-.09-.19-.09-.37-.09-.56,0-.56.28-1.02.46-1.57l.19-.37,2.69,1.2-.28.74c-.56,1.2-.93,1.48-1.57,1.48h0Zm-10.47,3.33c-.93,1.2-1.67,2.32-1.67,3.7,0,1.2.56,2.5,1.94,3.61.93.74,1.94,1.11,2.96,1.11,1.3,0,2.32-.37,3.98-2.41l1.48-1.85-7.32-5.83-1.39,1.67Zm3.33,7.04c-.74,0-1.48-.28-2.13-.83-.74-.56-1.48-1.48-1.48-2.69,0-.83.46-1.57,1.11-2.41l.65-.74,5.37,4.26-.37.56c-1.2,1.11-1.85,1.85-3.15,1.85h0Z"/>
      <path class="cls-2" d="m301.14,134.55c0-29.45-24.08-53.53-53.62-53.53s-53.62,23.99-53.62,53.53c0,17.69,8.71,34.17,23.34,44.18,1.48,5.37,6.39,9.35,12.13,9.35,1.57,0,3.15-.28,4.54-.83,1.94.65,3.98,1.2,6.02,1.57-.56,1.67-1.39,3.15-2.22,4.54s0,0-.09,0l1.11,1.11c.28-.19.65-.28.93-.28,1.11,0,2.04.93,2.04,2.04s-.93,2.04-2.04,2.04c-.93,0-1.85-.65-2.22-1.3,0,0-.28.93-.28,2.13,0,3.8,4.17,8.24,10,10.09,5.83-1.85,10-6.2,10-10.09,0-1.3-.28-2.13-.28-2.13-.46.56-1.2,1.3-2.22,1.3-1.11,0-2.04-.93-2.04-2.04s.93-2.04,2.04-2.04c.37,0,.74.09,1.02.28l1.11-1.11c-.65-1.48-1.02-2.78-1.39-4.07,9.63-1.3,17.78-5.37,24.26-12.13,13.8-10.28,21.49-25.75,21.49-42.6h0Zm-71.59,51.95c-6.11,0-11.02-5-11.02-11.02,0-1.94.46-3.7,1.3-5.28.56.56,1.2,1.02,1.76,1.57-.56,1.11-.83,2.41-.83,3.7,0,3.33,1.67,6.02,4.82,7.96,1.85,1.11,3.89,2.04,6.02,2.87-.56.19-1.3.19-2.04.19Zm17.97-16.02c-2.32,0-4.54-.19-6.76-.65-2.13-4.17-6.48-6.85-11.21-6.85-1.2,0-2.32.19-3.33.46-9.08-6.76-14.54-17.5-14.54-28.8,0-19.82,16.11-35.93,35.93-35.93s35.93,16.11,35.93,35.93-16.21,35.84-36.03,35.84h0Zm8.06.56c-1.11,1.57-1.76,3.7-1.94,5.83-3.43-.83-6.48-2.04-9.17-3.24.56-1.02,1.94-1.67,3.06-1.67,2.78,0,5.46-.37,8.06-.93Zm-11.39.74c-.46.37-.83.74-1.11,1.2-1.39-.65-3.06-1.48-4.17-2.13,1.57.37,3.61.83,5.28.93Zm-14.63-7.41c3.7,0,7.13,1.85,9.17,4.91-1.76-.46-3.52-1.02-5.19-1.76h-.09c-1.2-.56-2.5-.83-3.8-.83-2.96,0-5.56,1.48-7.13,3.61-.65-.37-1.39-.74-2.04-1.2,2.04-2.78,5.28-4.72,9.08-4.72h0Zm25.38,28.25c-1.94,0-3.61,1.39-3.61,3.52s1.67,3.52,3.61,3.52c.28,0,.56-.09.83-.09-.37,2.96-3.89,6.3-8.33,7.78-4.45-1.48-7.87-4.82-8.33-7.78.28.09.56.09.83.09,2.13,0,3.61-1.48,3.61-3.52s-1.57-3.52-3.52-3.52c.65-1.11,1.2-2.32,1.57-3.52,2.5.46,4.91.65,7.13.65,1.85,0,3.61-.09,5.37-.28.28,1.02.56,2.04,1.02,3.15h-.19Zm-6.11-4.35c-7.22,0-16.11-2.41-22.32-6.11-1.85-1.11-4.07-3.15-4.07-6.67,0-.93.19-1.85.56-2.69,2.32,1.94,4.72,3.7,6.2,4.54.37.19.56.28.93.28.93,0,1.76-.74,1.76-1.76,0-.74-.37-1.3-1.02-1.57-1.3-.56-3.98-1.67-6.85-3.15,1.3-1.76,3.43-2.87,5.74-2.87,1.11,0,2.13.28,3.06.65l1.94,1.11c6.3,3.8,22.41,13.61,41.77,8.24-7.41,6.67-16.48,10-27.69,10Zm30.1-12.32c-8.71,3.06-16.86,2.87-23.8,1.3.19-3.06,1.48-6.39,3.43-7.04,15.28-4.72,26.39-18.99,26.39-35.75,0-20.65-16.86-37.41-37.51-37.41s-37.32,16.86-37.32,37.51c0,11.48,5.37,22.41,14.35,29.45-2.13.93-3.98,2.5-5.28,4.35-.65-.46-1.39-.93-1.94-1.48l-.37.37c.37.46,1.02,1.11,1.76,1.85-1.11,1.85-1.76,4.07-1.76,6.39,0,.37,0,.74.09,1.11-13.43-9.82-21.39-25.38-21.39-42.05,0-28.71,23.34-51.95,51.95-51.95s51.95,23.34,51.95,51.95c.09,16.39-7.41,31.49-20.56,41.4h0Z"/>
    </g>
  </g>
</svg>