<?xml version="1.0" encoding="UTF-8"?>
<svg id="Layer_2" data-name="Layer 2" xmlns="http://www.w3.org/2000/svg" viewBox="0 0 391.08 391.08">
  <defs>
    <style>
      .cls-1 {
        fill: #e88d14;
      }

      .cls-2 {
        fill: #f3bc87;
      }

      .cls-3 {
        fill: #f3be26;
      }

      .cls-4 {
        fill: #fff;
      }

      .cls-5 {
        fill: #ee9c34;
      }

      .cls-6 {
        fill: #e669a2;
      }

      .cls-7 {
        fill: #ad1b02;
      }

      .cls-8 {
        fill: #c14303;
      }

      .cls-9 {
        fill: #c22303;
      }

      .cls-10 {
        fill: #d1390d;
      }

      .cls-11 {
        fill: #db4e18;
      }

      .cls-12 {
        fill: #e3721c;
      }

      .cls-13 {
        fill: #d85604;
      }
    </style>
  </defs>
  <g id="Livello_1" data-name="Livello 1">
    <circle cx="195.54" cy="195.54" r="195.54"/>
    <path id="path4061" class="cls-6" d="m328.74,175.92h-85.05v-21.77h85.05v21.77Z"/>
    <path id="path4103" class="cls-3" d="m317.69,175.92h-74v-54.44h74v54.44h0Z"/>
    <path id="path4089" class="cls-5" d="m287.12,175.92h-43.43v-76.2h43.43v76.2Z"/>
    <path id="path4075" class="cls-2" d="m295.66,175.92h-51.97v-67.7h51.97v67.7Z"/>
    <path id="path4688" class="cls-12" d="m243.68,108.23v67.68h43.43v-67.68s-43.43,0-43.43,0Z"/>
    <path id="path4119" class="cls-7" d="m200.14,175.92h43.55v10.89h-43.55v-10.89h0Z"/>
    <path id="path4698" class="cls-1" d="m243.68,121.46v54.45h52.01v-54.45h-52.01Z"/>
    <path id="path4693" class="cls-13" d="m243.68,121.46v54.45h43.43v-54.45h-43.43Z"/>
    <path id="path4117" class="cls-8" d="m270.85,175.92h-27.16v-32.68h27.16v32.68h0Z"/>
    <path id="path4713" class="cls-11" d="m243.68,154.17v21.75h74.04v-21.75h-74.04Z"/>
    <path id="path4708" class="cls-10" d="m243.68,154.17v21.75h52.01v-21.75h-52.01Z"/>
    <path id="path4703" class="cls-9" d="m243.68,154.17v21.75h43.43v-21.75h-43.43Z"/>
    <path id="path4625" class="cls-7" d="m243.68,154.17v21.75h27.2v-21.75h-27.2Z"/>
    <g id="g2925">
      <path id="path2850" class="cls-4" d="m253.16,216.92c-7.41,1.32-11.36,6.92-11.36,16.63s5.27,16.47,13.01,16.47c3.79,0,7.08-1.32,14-4.78v8.07c-8.4,3.95-13.34,4.94-19.92,4.94-7.41,0-12.68-1.81-16.8-6.26-4.28-4.28-6.59-9.88-6.59-16.3,0-14,10.54-23.71,25.85-23.71,10.04,0,17.12,4.78,17.12,11.53,0,4.45-3.29,7.57-8.07,7.57-2.47,0-4.45-.82-7.24-2.31"/>
      <path id="path2852" class="cls-4" d="m216.11,235.69c6.75-8.4,9.22-11.86,9.22-15.97s-3.29-7.74-7.9-7.74c-2.63,0-5.1,1.48-6.26,2.8v17.29l-11.03,14.82v-33.59h-10.54l-17.45,28.82v-28.82h-5.93l-15.97,3.62v4.12l8.73.82v35.73h11.03l16.8-27.66v27.66h12.35"/>
      <path id="path2862" class="cls-4" d="m116.82,251.99h2.47c8.89,0,13.83-5.43,13.83-16.3,0-9.06-3.95-14-11.36-14-.99,0-2.47.16-4.94.66v29.64h0Zm0,19.43l7.24,1.65v4.12h-28.49v-4.12l6.59-1.65v-49.73h-7.24v-4.12l17.29-5.27h4.61v5.93c8.07-4.94,10.87-5.76,15.15-5.76,9.55,0,16.8,8.89,16.8,21.24,0,14.16-9.71,23.88-24.53,23.88-1.65,0-4.45-.16-7.41-.33"/>
    </g>
  </g>
</svg>