<?xml version="1.0" encoding="UTF-8"?>
<svg id="Layer_2" data-name="Layer 2" xmlns="http://www.w3.org/2000/svg" viewBox="0 0 388.48 271.91">
  <defs>
    <style>
      .cls-1 {
        fill: #fff;
      }

      .cls-2 {
        fill: #00a1e0;
      }
    </style>
  </defs>
  <g id="Layer_1-2" data-name="Layer 1">
    <g>
      <path class="cls-2" d="m161.66,29.66c12.53-13.05,29.97-21.15,49.26-21.15,25.64,0,48.02,14.3,59.93,35.53,10.35-4.63,21.81-7.2,33.87-7.2,46.25,0,83.75,37.82,83.75,84.48s-37.5,84.49-83.75,84.49c-5.54,0-11.07-.55-16.5-1.64-10.49,18.72-30.49,31.36-53.44,31.36-9.61,0-18.69-2.22-26.78-6.16-10.64,25.02-35.42,42.56-64.3,42.56s-55.71-19.03-65.55-45.72c-4.3.91-8.75,1.39-13.33,1.39-35.81,0-64.84-29.33-64.84-65.52,0-24.25,13.04-45.42,32.42-56.75-3.99-9.18-6.21-19.31-6.21-29.97,0-41.61,33.78-75.35,75.46-75.35,24.47,0,46.21,11.63,59.99,29.66"/>
      <path class="cls-1" d="m56.27,141.01c-.24.64.09.77.17.88.73.53,1.47.91,2.22,1.34,3.96,2.1,7.7,2.72,11.62,2.72,7.97,0,12.92-4.24,12.92-11.06v-.13c0-6.31-5.58-8.6-10.82-10.25l-.68-.22c-3.95-1.28-7.36-2.39-7.36-4.99v-.14c0-2.22,1.99-3.86,5.08-3.86,3.43,0,7.5,1.14,10.13,2.59,0,0,.77.5,1.05-.25.15-.4,1.48-3.97,1.62-4.36.15-.42-.12-.73-.39-.9-2.99-1.82-7.13-3.07-11.42-3.07h-.8c-7.29,0-12.38,4.41-12.38,10.72v.13c0,6.66,5.62,8.82,10.88,10.32l.85.26c3.84,1.18,7.14,2.19,7.14,4.89v.13c0,2.47-2.15,4.31-5.61,4.31-1.34,0-5.63-.03-10.27-2.96-.56-.33-.89-.56-1.32-.82-.23-.14-.8-.39-1.05.36l-1.57,4.36h0Zm116.66,0c-.24.64.09.77.17.88.73.53,1.47.91,2.22,1.34,3.96,2.1,7.7,2.72,11.62,2.72,7.97,0,12.92-4.24,12.92-11.06v-.13c0-6.31-5.58-8.6-10.82-10.25l-.68-.22c-3.95-1.28-7.36-2.39-7.36-4.99v-.14c0-2.22,1.99-3.86,5.08-3.86,3.43,0,7.5,1.14,10.13,2.59,0,0,.77.5,1.05-.25.15-.4,1.48-3.97,1.62-4.36.15-.42-.12-.73-.39-.9-2.99-1.82-7.13-3.07-11.42-3.07h-.8c-7.29,0-12.38,4.41-12.38,10.72v.13c0,6.66,5.62,8.82,10.88,10.32l.85.26c3.84,1.18,7.14,2.19,7.14,4.89v.13c0,2.47-2.15,4.31-5.62,4.31-1.34,0-5.63-.03-10.27-2.96-.56-.33-.89-.55-1.31-.82-.14-.09-.82-.35-1.05.36l-1.57,4.36h0Zm79.64-13.37c0,3.86-.72,6.9-2.14,9.04-1.4,2.13-3.52,3.16-6.47,3.16s-5.07-1.03-6.45-3.16c-1.39-2.14-2.1-5.19-2.1-9.04s.71-6.88,2.1-9.01c1.38-2.1,3.49-3.13,6.45-3.13s5.07,1.02,6.48,3.13c1.41,2.12,2.13,5.16,2.13,9.01m6.65-7.15c-.65-2.21-1.67-4.16-3.03-5.78-1.36-1.63-3.07-2.93-5.11-3.88-2.03-.95-4.43-1.43-7.13-1.43s-5.1.48-7.13,1.43c-2.04.95-3.75,2.26-5.11,3.88-1.35,1.63-2.37,3.57-3.03,5.78-.65,2.2-.97,4.6-.97,7.15s.33,4.96.97,7.15c.66,2.2,1.67,4.15,3.03,5.78,1.36,1.63,3.08,2.93,5.11,3.85,2.04.92,4.43,1.39,7.13,1.39s5.09-.47,7.13-1.39c2.03-.92,3.75-2.22,5.11-3.85,1.36-1.62,2.37-3.57,3.03-5.78.65-2.2.98-4.6.98-7.15s-.33-4.95-.98-7.15m54.62,18.32c-.22-.65-.85-.4-.85-.4-.97.37-2,.71-3.09.89-1.11.17-2.34.26-3.65.26-3.22,0-5.78-.96-7.61-2.85-1.84-1.89-2.87-4.95-2.86-9.09.01-3.77.92-6.6,2.55-8.76,1.62-2.15,4.09-3.25,7.38-3.25,2.75,0,4.84.32,7.03,1.01,0,0,.53.23.77-.46.58-1.62,1.01-2.77,1.63-4.55.18-.5-.25-.72-.41-.78-.86-.34-2.9-.89-4.44-1.12-1.44-.22-3.12-.34-4.99-.34-2.8,0-5.29.48-7.42,1.43-2.13.95-3.93,2.25-5.36,3.88-1.43,1.63-2.51,3.57-3.24,5.78-.72,2.2-1.08,4.61-1.08,7.16,0,5.52,1.49,9.98,4.43,13.24,2.94,3.28,7.37,4.94,13.13,4.94,3.41,0,6.91-.69,9.42-1.68,0,0,.48-.23.27-.79l-1.63-4.51h0Zm11.64-14.87c.32-2.14.91-3.92,1.82-5.31,1.38-2.11,3.48-3.26,6.44-3.26s4.91,1.16,6.31,3.26c.93,1.39,1.33,3.25,1.49,5.31h-16.06Zm22.4-4.71c-.56-2.13-1.96-4.28-2.88-5.27-1.45-1.56-2.87-2.65-4.27-3.26-1.84-.79-4.04-1.31-6.45-1.31-2.81,0-5.36.47-7.43,1.44-2.08.97-3.82,2.3-5.19,3.96-1.37,1.65-2.4,3.61-3.05,5.84-.66,2.22-.99,4.64-.99,7.19s.34,5.01,1.02,7.19c.69,2.19,1.78,4.12,3.26,5.72,1.48,1.61,3.38,2.87,5.66,3.75,2.26.87,5.01,1.33,8.17,1.32,6.5-.02,9.93-1.47,11.34-2.25.25-.14.49-.38.19-1.08l-1.47-4.12c-.22-.61-.85-.39-.85-.39-1.61.6-3.9,1.67-9.24,1.66-3.49,0-6.08-1.03-7.7-2.65-1.67-1.65-2.48-4.07-2.62-7.49l22.52.02s.59-.01.65-.59c.02-.24.78-4.63-.67-9.7m-202.73,4.71c.32-2.14.91-3.92,1.82-5.31,1.38-2.11,3.48-3.26,6.44-3.26s4.91,1.16,6.31,3.26c.92,1.39,1.33,3.25,1.49,5.31h-16.06Zm22.39-4.71c-.56-2.13-1.96-4.28-2.88-5.27-1.45-1.56-2.87-2.65-4.27-3.26-1.84-.79-4.04-1.31-6.45-1.31-2.81,0-5.36.47-7.43,1.44-2.08.97-3.82,2.3-5.19,3.96-1.37,1.65-2.4,3.61-3.05,5.84-.65,2.22-.99,4.64-.99,7.19s.34,5.01,1.02,7.19c.69,2.19,1.78,4.12,3.26,5.72,1.48,1.61,3.38,2.87,5.66,3.75,2.26.87,5.01,1.33,8.17,1.32,6.5-.02,9.93-1.47,11.34-2.25.25-.14.49-.38.19-1.08l-1.47-4.12c-.23-.61-.85-.39-.85-.39-1.61.6-3.9,1.67-9.25,1.66-3.49,0-6.08-1.03-7.7-2.65-1.67-1.65-2.48-4.07-2.62-7.49l22.52.02s.59-.01.65-.59c.02-.24.77-4.63-.68-9.7m-71.06,19.45c-.88-.7-1-.88-1.3-1.33-.44-.69-.67-1.68-.67-2.93,0-1.98.65-3.4,2.01-4.36-.02,0,1.94-1.69,6.53-1.63,3.23.04,6.11.52,6.11.52v10.24h0s-2.86.61-6.08.81c-4.58.28-6.62-1.32-6.6-1.32m8.96-15.82c-.91-.07-2.1-.11-3.51-.11-1.93,0-3.8.24-5.54.71-1.76.47-3.34,1.21-4.7,2.18-1.36.97-2.48,2.24-3.26,3.71-.8,1.48-1.2,3.23-1.2,5.19s.34,3.72,1.03,5.14c.69,1.42,1.68,2.61,2.94,3.52,1.25.91,2.79,1.58,4.59,1.99,1.77.4,3.77.61,5.96.61,2.31,0,4.61-.19,6.84-.57,2.21-.38,4.92-.92,5.67-1.1.53-.13,1.05-.26,1.58-.4.56-.14.51-.74.51-.74v-20.59c-.01-4.52-1.22-7.86-3.59-9.94-2.36-2.07-5.84-3.12-10.34-3.12-1.69,0-4.41.23-6.03.56,0,0-4.92.95-6.95,2.53,0,0-.44.28-.2.9l1.59,4.28c.2.55.74.37.74.37,0,0,.17-.07.37-.18,4.33-2.36,9.81-2.29,9.81-2.29,2.44,0,4.31.49,5.57,1.46,1.23.94,1.85,2.36,1.85,5.36v.95c-1.94-.28-3.71-.44-3.71-.44m181.61-11.6c.17-.51-.19-.75-.34-.81-.38-.15-2.3-.55-3.77-.65-2.83-.17-4.4.3-5.81.94-1.39.63-2.94,1.65-3.81,2.81v-2.74c0-.38-.27-.69-.65-.69h-5.77c-.38,0-.65.3-.65.69v33.59c0,.38.31.69.69.69h5.92c.38,0,.68-.31.68-.69v-16.78c0-2.25.25-4.5.75-5.91.49-1.39,1.15-2.51,1.97-3.32.82-.8,1.76-1.36,2.78-1.67,1.05-.32,2.2-.43,3.02-.43,1.18,0,2.47.3,2.47.3.43.05.68-.22.82-.61.39-1.03,1.48-4.11,1.69-4.73"/>
      <path class="cls-1" d="m231.52,95.7c-.72-.22-1.37-.37-2.22-.53-.86-.15-1.89-.23-3.06-.23-4.07,0-7.28,1.15-9.54,3.42-2.24,2.26-3.76,5.69-4.53,10.22l-.28,1.52h-5.11s-.62-.02-.75.65l-.84,4.69c-.06.44.13.72.73.72h4.98l-5.05,28.18c-.39,2.27-.85,4.13-1.35,5.55-.49,1.39-.97,2.44-1.57,3.2-.58.73-1.12,1.27-2.06,1.59-.77.26-1.67.38-2.65.38-.54,0-1.27-.09-1.8-.2-.53-.11-.81-.22-1.22-.39,0,0-.58-.22-.81.36-.18.48-1.51,4.13-1.67,4.58-.15.45.07.8.35.9.66.23,1.16.39,2.06.6,1.25.29,2.31.31,3.3.31,2.07,0,3.96-.29,5.53-.86,1.57-.57,2.94-1.56,4.16-2.9,1.31-1.45,2.14-2.97,2.92-5.04.78-2.05,1.45-4.59,1.98-7.56l5.07-28.7h7.42s.62.02.75-.66l.84-4.68c.06-.45-.13-.72-.74-.72h-7.2c.04-.16.37-2.7,1.19-5.08.35-1.01,1.02-1.84,1.58-2.4.55-.55,1.19-.95,1.89-1.17.71-.23,1.53-.34,2.42-.34.68,0,1.34.08,1.85.18.7.15.97.23,1.15.28.74.22.84,0,.98-.35l1.72-4.73c.18-.51-.26-.73-.41-.79m-100.59,48.7c0,.38-.27.68-.65.68h-5.97c-.38,0-.64-.3-.64-.68v-48.06c0-.38.27-.68.64-.68h5.97c.38,0,.65.3.65.68v48.06Z"/>
    </g>
  </g>
</svg>