<?xml version="1.0" encoding="UTF-8"?>
<svg id="Layer_2" data-name="Layer 2" xmlns="http://www.w3.org/2000/svg" viewBox="0 0 387.15 387.15">
  <defs>
    <style>
      .cls-1 {
        fill: #2b2c6d;
      }

      .cls-1, .cls-2, .cls-3 {
        fill-rule: evenodd;
      }

      .cls-2 {
        fill: #f05323;
      }

      .cls-3 {
        fill: #fafbfc;
      }
    </style>
  </defs>
  <g id="Layer_1-2" data-name="Layer 1">
    <path class="cls-1" d="m387.15,193.57c0,106.91-86.66,193.57-193.57,193.57S0,300.48,0,193.57,86.67,0,193.58,0s193.57,86.67,193.57,193.57Z"/>
    <path class="cls-3" d="m284.19,141.89l-4.89-15.1c-.99-3.07-3.42-5.46-6.5-6.4l-15.18-4.67c-2.1-.64-2.12-3.6-.03-4.28l15.11-4.89c3.07-.99,5.46-3.42,6.4-6.5l4.66-15.17c.64-2.1,3.6-2.12,4.28-.03l4.89,15.1c.99,3.07,3.42,5.46,6.5,6.4l15.17,4.66c2.1.65,2.12,3.6.03,4.28l-15.11,4.89c-3.06.99-5.46,3.42-6.4,6.51l-4.66,15.17c-.64,2.1-3.6,2.12-4.28.03Z"/>
    <path class="cls-2" d="m16.97,190.56c4.61-9.11,13.74-15.97,23.22-20.31,9.58-4.29,20.11-6.93,30.45-7.78,20.88-1.9,41.21,1.62,59.74,7.7,9.54,2.87,18.08,6.85,26.91,10.87,4.29,2.08,8.32,4.44,12.47,6.71l11.46,6.7c12.59,7.78,24.79,14.66,36.25,20.01,11.49,5.3,21.88,8.89,31.67,10.72,9.79,1.86,19.74,1.83,31.98-1,12.14-2.77,25.8-8.73,40.08-16.39,14.36-7.66,29.1-17.05,45.9-26.23-1.69,19.18-7.07,37.17-15.49,54.54-8.62,17.16-20.61,33.9-38.1,47.46-17.15,13.67-40.7,23.19-64.68,24.63-23.99,1.63-46.81-3.69-66.22-11.7-19.49-8.13-36.33-18.81-51.25-30.6-4.12-3.26-6.33-5.11-9.38-7.7l-8.5-7.5c-5.73-4.52-11.28-9.92-16.94-14.4-11.31-9.53-22.5-19.07-34.76-27.34-6.19-4.2-12.56-8.1-19.8-11.56-3.59-1.67-7.41-3.22-11.51-4.45-4.2-1.38-8.46-2.2-13.49-2.37Z"/>
    <path class="cls-3" d="m16.97,190.82c2.36-19.59,11.49-37.96,26.12-53.6,14.56-15.49,37.3-27.43,62.54-29.01,12.46-.83,25.1.56,36.72,3.78,11.57,3.21,22.42,7.89,32.19,13.4,4.88,2.77,9.45,5.79,14,8.85l12.13,9.18,18.93,14.94c12.29,9.79,24.02,18.84,34.86,26.31,10.94,7.49,20.26,12.95,29.17,16.16,8.82,3.5,19.96,4.39,34.7.69,7.31-1.69,14.94-4.76,23.08-8.1,8.09-3.42,16.5-7.49,25.69-11.53-1.11,9.85-3.11,19.66-6.91,28.82-3.65,9.29-8.46,18.38-15.18,26.86-3.44,4.13-7.13,8.28-11.42,12.11-4.3,3.74-9.06,7.29-14.32,10.4-10.49,6.08-22.95,10.53-35.72,12.11-12.77,1.6-25.59.8-37.27-1.68-11.74-2.41-22.43-6.29-32.25-10.77-19.57-9.1-35.94-20.54-50.41-32.66-7.27-6.05-14.08-12.37-20.54-18.78l-7.62-7.65c-2.3-2.22-4.62-4.45-6.92-6.49-9.26-8.19-17.86-14.45-27.33-18.35-9.4-4.09-21.43-5.77-36.19-3-14.7,2.73-30.83,9.09-48.03,18.02Z"/>
    <path class="cls-3" d="m95.63,291.52c0,5.96-4.84,10.8-10.8,10.8s-10.79-4.84-10.79-10.8,4.83-10.8,10.79-10.8,10.8,4.84,10.8,10.8Z"/>
    <path class="cls-3" d="m95.63,291.52c0,5.96-4.84,10.8-10.8,10.8s-10.79-4.84-10.79-10.8,4.83-10.8,10.79-10.8,10.8,4.84,10.8,10.8Z"/>
  </g>
</svg>