<?xml version="1.0" encoding="UTF-8"?>
<svg id="Layer_2" data-name="Layer 2" xmlns="http://www.w3.org/2000/svg" viewBox="0 0 391.08 391.08">
  <defs>
    <style>
      .cls-1 {
        fill: #fff;
      }
    </style>
  </defs>
  <g id="Layer_1-2" data-name="Layer 1">
    <circle cx="195.54" cy="195.54" r="195.54"/>
    <g>
      <path class="cls-1" d="m276.46,242.19v-80.7h27.3v63.58h35.45v17.28"/>
      <path class="cls-1" d="m196.65,242.3c-12.07-8.7-17.78-23.26-17.78-37.22,0-23.1,15.51-46.74,44.86-46.74,13.07,0,25.53,4.6,34.67,13.85,3.66,3.82,5.43,6.65,7.2,10.08l-22.98,11.3c-2.16-5.15-6.37-14.29-17.94-14.29-5.98,0-9.8,2.88-11.69,4.6-6.54,6.26-6.54,16.01-6.54,19.44,0,12.79,4.76,24.87,18.22,24.87s16.56-11.3,17.5-14.12l23.26,11.3c-2.16,4.1-4.38,8.03-8.42,12.24-1.77,1.77-3.66,3.27-5.7,4.6"/>
      <path class="cls-1" d="m102.49,242.3c-1.22-.83-2.16-1.61-3.27-2.6-8.58-8.31-8.7-17.94-8.97-26.92v-51.18h27.47v53.78c0,3.66.11,7.48,3.1,10.3,2.16,2.33,5.59,3.1,8.7,3.1,4.38,0,7.09-1.61,8.7-2.99,3.1-2.99,3.27-6.81,3.27-10.47v-53.72h27.58v45.8c0,9.91,0,22.71-10.19,32.34-.94.94-2.05,1.77-3.27,2.6"/>
      <g>
        <path class="cls-1" d="m76.41,180.93l-14.79-3.1s-14.68,3.1-14.79,3.1,0,.11,0,.11l.11.83h0s.28,0,.39.11l.28,1.22s0,.11.11.11h27.91c.17,0,.11,0,.11,0l.28-1.22c.11-.28.39-.28.39-.28h0l.11-.83v-.11h-.11v.06Z"/>
        <path class="cls-1" d="m74.91,183.65h0v-.44h-2.33v.39h.11v.11s0,.39.28.55v.11h-.11v.22h0v8.31l-.11.11h0v.11h-.11v.28h2.16v-.28h-.11l-.11-.11v-8.31h0v-.22h0s-.11-.11,0-.11c.28-.11.28-.39.28-.55v-.06h.11v-.11h-.06Z"/>
        <path class="cls-1" d="m70.04,183.65h0v-.44h-2.33v.39h.17v.11s0,.39.28.55v.11h-.11v.22h0v8.31l-.11.11h0v.11h-.11v.28h2.16v-.28h-.11l-.11-.11v-8.31h0v-.22h0s-.11-.11,0-.11c.28-.11.28-.39.28-.55v-.06h.11v-.11h-.11Z"/>
        <path class="cls-1" d="m65.28,183.65h0v-.44h-2.33v.39h.11v.11s0,.39.28.55v.11h-.11v.22h0v8.31l-.11.11h0v.11h-.11v.28h2.16v-.28h-.11l-.11-.11v-8.31h0v-.22h-.11s-.11-.11,0-.11c.11-.11.28-.39.28-.55v-.06h.11l.06-.11Z"/>
        <path class="cls-1" d="m60.4,183.65h0v-.44h-2.33v.39h.11v.11s0,.39.28.55v.11h-.11v.22h0v8.31l-.11.11h0v.11h-.11v.28h2.16v-.28h-.17l-.11-.11v-8.31h0v-.22h0s-.11-.11,0-.11c.28-.11.28-.39.28-.55v-.06h.11v-.11Z"/>
        <path class="cls-1" d="m55.53,183.65h0v-.44h-2.33v.39h.11v.11s0,.39.28.55v.11h-.11v.22h0v8.31l-.11.11h0v.11h-.11v.28h2.16v-.28h-.11l-.11-.11v-8.31h0v-.22h-.11s-.11-.11,0-.11c.28-.11.28-.39.28-.55v-.06h.11l.06-.11Z"/>
        <path class="cls-1" d="m50.76,183.65h0v-.44h-2.33v.39h.11v.11s0,.39.28.55v.11h-.11v.22h0v8.31l-.11.11h0v.11h-.11v.28h2.16v-.28h-.11l-.11-.11v-8.31h0v-.22h-.11s-.11-.11,0-.11c.11-.11.28-.39.28-.55v-.06h.11l.06-.11Z"/>
        <path class="cls-1" d="m68.54,174.78h-.28v-.28h-.28v-.28h-.11s-.11,0-.11-.11c0-.28.11-2.6-1.11-4.1-.94-1.38-2.16-2.05-2.88-2.44,0-.28-.39-.39-.66-.55-.11,0-.11-.11-.11-.11v-.11c0-.11.11-.11.28-.11h.11v-.28s0-.11-.11-.11h-.28s-.11,0-.11-.11v-.11q0-.11-.11-.11v-1.61h.11v-.11h-.11v-.22h0v-.28h-.22l-.55-.55h0s0-.11-.11-.11,0-.11,0-.11h0v-.11l-.11-.28h0s-.11.11-.11.28v.11h0v.11q-.11,0-.11.11h0s-.28.39-.55.55h-.22v.11h0v.22h-.11v.11h.11v1.61l-.11.11v.11s0,.11-.11.11h-.28s-.11,0-.11.11v.28h.11c.11,0,.28,0,.28.11v.11c0,.11-.11.11-.11.11-.11,0-.55.11-.66.55-.66.28-2.05,1.11-2.88,2.44-1.22,1.61-1.11,3.82-1.11,4.1,0,0,0,.11-.11.11h-.11v.28h-.28v.28h-.28v.28h0c.11,0,.28.11.28.28,0,.28.11.28.28.28v.94c0,.28-.11.28-.28.28h0v.94l6.81-1.5h0l6.81,1.5v-.94h0c-.11,0-.28-.11-.28-.28v-.94s.28,0,.28-.28c0-.11.11-.28.28-.28h0v-.28h0l-.66.17Z"/>
        <polygon class="cls-1" points="76.02 194.5 74.91 194.5 74.91 193.67 48.44 193.67 48.44 194.5 47.33 194.5 47.33 196.55 46.11 196.55 46.11 198.43 77.24 198.43 77.24 196.55 76.02 196.55 76.02 194.5"/>
      </g>
    </g>
  </g>
</svg>